<?xml version="1.0" encoding="iso-8859-1"?>
<!-- Generator: Adobe Illustrator 19.0.0, SVG Export Plug-In . SVG Version: 6.00 Build 0)  -->
<svg version="1.1" id="Layer_1" xmlns="http://www.w3.org/2000/svg" xmlns:xlink="http://www.w3.org/1999/xlink" x="0px" y="0px"
	 viewBox="0 0 330 330" style="enable-background:new 0 0 330 330;" xml:space="preserve">
<path id="XMLID_244_" d="M325.607,304.394l-42.276-42.275c10.489-14.717,16.665-32.709,16.665-52.118
	c0-26.593-11.598-50.526-29.996-67.017V15c0-0.112-0.014-0.22-0.017-0.332c-0.006-0.287-0.021-0.573-0.043-0.859
	c-0.017-0.214-0.037-0.428-0.063-0.639c-0.033-0.272-0.076-0.541-0.124-0.811c-0.039-0.224-0.081-0.445-0.131-0.665
	c-0.057-0.25-0.122-0.498-0.192-0.746c-0.065-0.231-0.131-0.461-0.207-0.688c-0.077-0.229-0.162-0.456-0.25-0.682
	c-0.092-0.238-0.188-0.474-0.291-0.705c-0.093-0.208-0.194-0.412-0.297-0.616c-0.122-0.243-0.249-0.482-0.384-0.717
	c-0.108-0.187-0.22-0.371-0.337-0.554c-0.153-0.241-0.312-0.478-0.478-0.709C267.122,6.186,267.068,6.09,267,6
	c-0.064-0.085-0.137-0.159-0.202-0.243c-0.167-0.214-0.342-0.422-0.52-0.626c-0.158-0.18-0.316-0.357-0.48-0.528
	c-0.164-0.17-0.333-0.333-0.505-0.496c-0.191-0.181-0.384-0.36-0.583-0.53c-0.163-0.139-0.332-0.27-0.501-0.401
	c-0.216-0.169-0.432-0.335-0.655-0.49c-0.178-0.124-0.362-0.238-0.545-0.354c-0.221-0.14-0.442-0.279-0.669-0.406
	c-0.21-0.118-0.426-0.225-0.642-0.333c-0.209-0.104-0.418-0.21-0.631-0.304c-0.245-0.108-0.496-0.204-0.747-0.299
	c-0.196-0.074-0.391-0.15-0.59-0.216c-0.265-0.088-0.534-0.163-0.805-0.236c-0.2-0.054-0.4-0.109-0.601-0.155
	c-0.261-0.059-0.526-0.107-0.793-0.152c-0.227-0.039-0.453-0.076-0.681-0.104c-0.241-0.029-0.483-0.05-0.727-0.068
	c-0.266-0.02-0.531-0.034-0.797-0.04C255.215,0.014,255.109,0,255,0H15c-0.107,0-0.211,0.014-0.318,0.016
	c-0.269,0.006-0.537,0.02-0.805,0.041c-0.242,0.018-0.482,0.039-0.721,0.068c-0.229,0.028-0.457,0.065-0.684,0.104
	c-0.266,0.045-0.531,0.093-0.792,0.152c-0.201,0.046-0.399,0.1-0.599,0.154c-0.272,0.074-0.543,0.149-0.809,0.237
	c-0.196,0.065-0.389,0.141-0.583,0.214C9.434,1.083,9.181,1.179,8.933,1.289c-0.21,0.092-0.415,0.196-0.621,0.299
	c-0.22,0.11-0.44,0.219-0.653,0.339C7.435,2.052,7.22,2.189,7.002,2.325C6.814,2.444,6.626,2.562,6.444,2.689
	c-0.22,0.152-0.433,0.316-0.645,0.482C5.627,3.305,5.455,3.438,5.289,3.58C5.092,3.747,4.902,3.925,4.712,4.104
	C4.539,4.268,4.367,4.433,4.201,4.605C4.038,4.775,3.881,4.951,3.725,5.13C3.545,5.335,3.37,5.543,3.202,5.758
	C3.137,5.841,3.064,5.915,3,6C2.932,6.09,2.878,6.186,2.813,6.277C2.647,6.509,2.488,6.745,2.335,6.986
	C2.219,7.17,2.106,7.354,1.998,7.541C1.863,7.776,1.737,8.015,1.614,8.258C1.511,8.462,1.411,8.666,1.317,8.874
	C1.213,9.106,1.118,9.341,1.026,9.579c-0.088,0.226-0.173,0.452-0.249,0.682c-0.075,0.227-0.142,0.457-0.207,0.688
	c-0.069,0.248-0.136,0.496-0.192,0.746c-0.049,0.22-0.091,0.441-0.131,0.665c-0.048,0.269-0.091,0.539-0.124,0.811
	c-0.026,0.211-0.045,0.425-0.062,0.639c-0.023,0.287-0.037,0.573-0.043,0.859C0.014,14.78,0,14.888,0,15v180c0,8.284,6.716,15,15,15
	h104.997c0,49.626,40.374,90,90,90c19.411,0,37.405-6.177,52.122-16.668l42.275,42.275C307.323,328.536,311.162,330,315,330
	s7.678-1.464,10.606-4.394C331.465,319.749,331.465,310.251,325.607,304.394z M210,30l-75,56.25L60,30H210z M30,180V45l96,72
	c2.667,2,5.834,3,9,3c3.167,0,6.334-1,9-3l96-72v80.149c-9.389-3.33-19.487-5.149-30.004-5.149c-39.111,0-72.469,25.08-84.852,60H30
	z M149.997,210c0-33.084,26.916-60,60-60s60,26.916,60,60s-26.916,60-60,60S149.997,243.084,149.997,210z"/>
<g>
</g>
<g>
</g>
<g>
</g>
<g>
</g>
<g>
</g>
<g>
</g>
<g>
</g>
<g>
</g>
<g>
</g>
<g>
</g>
<g>
</g>
<g>
</g>
<g>
</g>
<g>
</g>
<g>
</g>
</svg>
