<?xml version="1.0" encoding="iso-8859-1"?>
<!-- Generator: Adobe Illustrator 19.0.0, SVG Export Plug-In . SVG Version: 6.00 Build 0)  -->
<svg version="1.1" id="Layer_1" xmlns="http://www.w3.org/2000/svg" xmlns:xlink="http://www.w3.org/1999/xlink" x="0px" y="0px"
	 viewBox="0 0 330 330" style="enable-background:new 0 0 330 330;" xml:space="preserve">
<g id="XMLID_222_">
	<path id="XMLID_223_" d="M270,130.145V15c0-0.113-0.015-0.222-0.017-0.334c-0.007-0.285-0.021-0.569-0.044-0.855
		c-0.017-0.216-0.037-0.431-0.063-0.644c-0.033-0.27-0.075-0.538-0.123-0.806c-0.04-0.225-0.082-0.448-0.132-0.668
		c-0.056-0.249-0.122-0.496-0.19-0.743c-0.065-0.232-0.133-0.463-0.209-0.69c-0.076-0.229-0.16-0.454-0.248-0.68
		c-0.093-0.238-0.188-0.475-0.292-0.707c-0.093-0.207-0.193-0.412-0.297-0.616c-0.122-0.243-0.249-0.482-0.384-0.717
		c-0.108-0.187-0.221-0.371-0.338-0.554c-0.152-0.241-0.311-0.477-0.477-0.709C267.121,6.186,267.067,6.09,267,6
		c-0.065-0.085-0.137-0.159-0.201-0.242c-0.169-0.215-0.344-0.423-0.523-0.628c-0.156-0.179-0.314-0.355-0.477-0.525
		c-0.165-0.172-0.335-0.336-0.509-0.499c-0.19-0.18-0.382-0.358-0.58-0.527c-0.164-0.14-0.334-0.271-0.504-0.404
		c-0.215-0.168-0.43-0.333-0.652-0.488c-0.179-0.124-0.363-0.239-0.547-0.355c-0.222-0.14-0.441-0.278-0.668-0.406
		c-0.21-0.118-0.426-0.224-0.642-0.332c-0.21-0.104-0.419-0.211-0.634-0.305c-0.242-0.108-0.492-0.203-0.741-0.298
		c-0.198-0.075-0.395-0.151-0.597-0.218c-0.262-0.087-0.529-0.161-0.798-0.234c-0.202-0.055-0.404-0.11-0.608-0.156
		c-0.259-0.059-0.521-0.106-0.784-0.151c-0.23-0.04-0.46-0.077-0.692-0.106c-0.236-0.029-0.476-0.05-0.716-0.068
		c-0.27-0.02-0.538-0.035-0.809-0.041C255.211,0.014,255.107,0,255,0H15c-0.107,0-0.211,0.014-0.318,0.016
		c-0.269,0.006-0.537,0.021-0.805,0.041c-0.242,0.018-0.483,0.039-0.722,0.068c-0.229,0.028-0.456,0.065-0.685,0.104
		c-0.266,0.045-0.53,0.093-0.792,0.152c-0.201,0.046-0.399,0.1-0.6,0.154c-0.271,0.074-0.542,0.148-0.808,0.237
		c-0.197,0.065-0.391,0.141-0.586,0.214C9.433,1.083,9.181,1.179,8.935,1.288C8.723,1.382,8.517,1.486,8.309,1.589
		C8.091,1.699,7.872,1.807,7.66,1.926C7.436,2.052,7.217,2.19,6.998,2.328C6.813,2.445,6.626,2.562,6.446,2.687
		C6.225,2.841,6.01,3.007,5.795,3.174c-0.17,0.132-0.34,0.264-0.504,0.404C5.092,3.747,4.9,3.926,4.709,4.106
		C4.537,4.269,4.367,4.433,4.202,4.603C4.039,4.774,3.881,4.951,3.724,5.131C3.544,5.335,3.37,5.543,3.202,5.757
		C3.137,5.841,3.063,5.915,3,6C2.933,6.09,2.879,6.186,2.813,6.277C2.647,6.509,2.488,6.745,2.335,6.986
		C2.219,7.17,2.105,7.353,1.998,7.541C1.863,7.775,1.736,8.016,1.613,8.258C1.511,8.462,1.41,8.666,1.318,8.873
		c-0.105,0.233-0.2,0.469-0.293,0.707c-0.088,0.226-0.172,0.451-0.248,0.68c-0.076,0.227-0.143,0.458-0.209,0.69
		c-0.068,0.247-0.135,0.493-0.191,0.743c-0.05,0.221-0.092,0.444-0.132,0.668c-0.048,0.269-0.09,0.536-0.123,0.806
		c-0.026,0.214-0.046,0.429-0.063,0.646c-0.023,0.284-0.037,0.568-0.044,0.852C0.015,14.777,0,14.887,0,15v180
		c0,8.284,6.716,15,15,15h106.076c-0.704,4.901-1.076,9.907-1.076,15c0,57.897,47.102,105,105,105s105-47.103,105-105
		C330,183.198,305.443,147.027,270,130.145z M210,30l-75,56.25L60,30H210z M30,180V45l96,72c2.667,2,5.833,3,9,3s6.333-1,9-3l96-72
		v76.076c-4.9-0.704-9.907-1.076-15-1.076c-41.803,0-77.973,24.557-94.855,60H30z M225,300c-41.355,0-75-33.645-75-75
		s33.645-75,75-75s75,33.645,75,75S266.355,300,225,300z"/>
	<path id="XMLID_228_" d="M256.819,193.18c-5.857-5.857-15.355-5.858-21.213,0.001L225,203.787l-10.606-10.607
		c-5.857-5.858-15.355-5.857-21.213-0.001c-5.858,5.858-5.858,15.355,0,21.213L203.787,225l-10.606,10.607
		c-5.858,5.858-5.858,15.355,0,21.213c2.929,2.929,6.768,4.393,10.606,4.393c3.839,0,7.678-1.464,10.607-4.394L225,246.213
		l10.606,10.607c2.929,2.929,6.768,4.394,10.607,4.394c3.838,0,7.678-1.465,10.606-4.393c5.858-5.858,5.858-15.356,0-21.213
		L246.213,225l10.606-10.607C262.678,208.535,262.678,199.038,256.819,193.18z"/>
</g>
<g>
</g>
<g>
</g>
<g>
</g>
<g>
</g>
<g>
</g>
<g>
</g>
<g>
</g>
<g>
</g>
<g>
</g>
<g>
</g>
<g>
</g>
<g>
</g>
<g>
</g>
<g>
</g>
<g>
</g>
</svg>
