<?xml version="1.0" encoding="iso-8859-1"?>
<!-- Generator: Adobe Illustrator 19.0.0, SVG Export Plug-In . SVG Version: 6.00 Build 0)  -->
<svg version="1.1" id="Layer_1" xmlns="http://www.w3.org/2000/svg" xmlns:xlink="http://www.w3.org/1999/xlink" x="0px" y="0px"
	 viewBox="0 0 300 300" style="enable-background:new 0 0 300 300;" xml:space="preserve">
<path id="XMLID_17_" d="M284.983,104.666c-0.007-0.285-0.021-0.569-0.044-0.854c-0.017-0.216-0.037-0.431-0.063-0.644
	c-0.033-0.27-0.075-0.538-0.123-0.806c-0.04-0.225-0.082-0.448-0.132-0.668c-0.056-0.25-0.122-0.496-0.19-0.743
	c-0.065-0.232-0.133-0.463-0.209-0.69c-0.076-0.229-0.16-0.454-0.248-0.68c-0.093-0.238-0.188-0.475-0.292-0.707
	c-0.093-0.207-0.193-0.412-0.297-0.616c-0.122-0.243-0.249-0.482-0.384-0.717c-0.108-0.187-0.221-0.371-0.338-0.554
	c-0.152-0.241-0.311-0.478-0.477-0.709c-0.066-0.091-0.12-0.187-0.188-0.277c-0.065-0.085-0.137-0.159-0.202-0.243
	c-0.168-0.213-0.342-0.421-0.521-0.625c-0.157-0.181-0.316-0.358-0.48-0.529c-0.164-0.17-0.333-0.333-0.504-0.494
	c-0.192-0.182-0.386-0.362-0.586-0.533c-0.162-0.137-0.33-0.268-0.498-0.399c-0.217-0.169-0.434-0.337-0.658-0.492
	c-0.177-0.123-0.359-0.236-0.541-0.352c-0.223-0.141-0.445-0.282-0.675-0.41c-0.206-0.116-0.419-0.221-0.632-0.328
	c-0.214-0.106-0.426-0.213-0.643-0.309c-0.24-0.106-0.487-0.201-0.734-0.294c-0.2-0.076-0.4-0.154-0.604-0.221
	c-0.26-0.086-0.525-0.16-0.791-0.232c-0.205-0.056-0.409-0.112-0.617-0.159c-0.256-0.058-0.516-0.104-0.775-0.148
	c-0.233-0.04-0.466-0.078-0.7-0.107c-0.234-0.029-0.471-0.049-0.709-0.067c-0.272-0.021-0.543-0.036-0.816-0.041
	C270.208,90.014,270.105,90,270,90c-0.111,0-0.221,0.014-0.332,0.017c-0.287,0.006-0.572,0.021-0.859,0.043
	c-0.215,0.017-0.427,0.037-0.639,0.063c-0.271,0.033-0.541,0.076-0.813,0.124c-0.223,0.04-0.443,0.082-0.663,0.131
	c-0.25,0.056-0.499,0.123-0.747,0.192c-0.23,0.065-0.46,0.132-0.686,0.207c-0.23,0.076-0.457,0.162-0.684,0.25
	c-0.237,0.092-0.473,0.187-0.703,0.291c-0.209,0.093-0.414,0.194-0.619,0.298c-0.242,0.122-0.48,0.249-0.715,0.383
	c-0.188,0.107-0.371,0.221-0.556,0.338c-0.241,0.152-0.477,0.312-0.708,0.478C261.186,92.878,261.09,92.933,261,93l-6,4.5V15
	c0-8.284-6.716-15-15-15H60c-8.284,0-15,6.716-15,15v82.5L39,93c-0.09-0.068-0.187-0.122-0.277-0.187
	c-0.231-0.166-0.467-0.325-0.707-0.478c-0.185-0.117-0.37-0.23-0.558-0.338c-0.233-0.134-0.472-0.26-0.712-0.382
	c-0.207-0.104-0.413-0.205-0.622-0.299c-0.229-0.104-0.464-0.197-0.699-0.289c-0.229-0.089-0.457-0.175-0.688-0.252
	c-0.226-0.075-0.452-0.141-0.682-0.205c-0.25-0.07-0.5-0.137-0.753-0.193c-0.217-0.049-0.438-0.091-0.658-0.13
	c-0.271-0.049-0.543-0.091-0.816-0.125c-0.211-0.025-0.422-0.045-0.635-0.062c-0.288-0.023-0.575-0.038-0.863-0.044
	C30.22,90.014,30.111,90,30,90c-0.105,0-0.207,0.014-0.313,0.016c-0.273,0.006-0.546,0.021-0.818,0.041
	c-0.237,0.018-0.474,0.038-0.708,0.067c-0.234,0.029-0.467,0.067-0.699,0.106c-0.261,0.045-0.522,0.092-0.778,0.149
	c-0.206,0.047-0.409,0.103-0.613,0.158c-0.268,0.072-0.533,0.146-0.793,0.232c-0.203,0.067-0.402,0.145-0.601,0.22
	c-0.248,0.095-0.496,0.189-0.737,0.296c-0.216,0.095-0.427,0.202-0.638,0.308c-0.215,0.107-0.429,0.213-0.637,0.33
	c-0.229,0.128-0.449,0.268-0.671,0.407c-0.184,0.116-0.367,0.23-0.545,0.354c-0.224,0.155-0.439,0.321-0.655,0.49
	c-0.169,0.132-0.338,0.263-0.501,0.402c-0.199,0.169-0.392,0.349-0.583,0.53c-0.172,0.162-0.342,0.325-0.506,0.496
	c-0.164,0.171-0.322,0.348-0.48,0.528c-0.179,0.205-0.353,0.412-0.521,0.626C18.137,95.841,18.065,95.915,18,96
	c-0.067,0.09-0.121,0.186-0.188,0.277c-0.166,0.231-0.324,0.468-0.477,0.709c-0.117,0.184-0.23,0.367-0.338,0.554
	c-0.135,0.235-0.262,0.475-0.385,0.718c-0.103,0.204-0.203,0.408-0.295,0.615c-0.105,0.232-0.2,0.469-0.293,0.707
	c-0.088,0.226-0.172,0.451-0.248,0.68c-0.076,0.227-0.144,0.458-0.209,0.69c-0.068,0.247-0.135,0.493-0.191,0.743
	c-0.05,0.221-0.092,0.444-0.132,0.668c-0.048,0.269-0.09,0.536-0.123,0.806c-0.026,0.214-0.046,0.429-0.063,0.646
	c-0.023,0.284-0.037,0.568-0.044,0.853C15.015,104.777,15,104.887,15,105v180c0,8.284,6.716,15,15,15h240c8.284,0,15-6.716,15-15
	V105C285,104.887,284.985,104.778,284.983,104.666z M75,30h150v90l-75,56.25L75,120V30z M45,270V135l96,72c2.667,2,5.833,3,9,3
	s6.333-1,9-3l96-72v135H45z"/>
<g>
</g>
<g>
</g>
<g>
</g>
<g>
</g>
<g>
</g>
<g>
</g>
<g>
</g>
<g>
</g>
<g>
</g>
<g>
</g>
<g>
</g>
<g>
</g>
<g>
</g>
<g>
</g>
<g>
</g>
</svg>
