<?xml version="1.0" encoding="iso-8859-1"?>
<!-- Generator: Adobe Illustrator 19.0.0, SVG Export Plug-In . SVG Version: 6.00 Build 0)  -->
<svg version="1.1" id="Layer_1" xmlns="http://www.w3.org/2000/svg" xmlns:xlink="http://www.w3.org/1999/xlink" x="0px" y="0px"
	 viewBox="0 0 330 330" style="enable-background:new 0 0 330 330;" xml:space="preserve">
<path id="XMLID_28_" d="M315,90h-45V45c0-0.113-0.015-0.222-0.017-0.334c-0.007-0.285-0.021-0.569-0.044-0.854
	c-0.017-0.216-0.036-0.431-0.063-0.644c-0.033-0.27-0.075-0.538-0.123-0.806c-0.04-0.225-0.082-0.448-0.132-0.668
	c-0.056-0.25-0.122-0.496-0.19-0.743c-0.065-0.232-0.133-0.463-0.209-0.69c-0.076-0.229-0.16-0.454-0.248-0.68
	c-0.093-0.238-0.188-0.475-0.292-0.707c-0.093-0.208-0.193-0.412-0.297-0.616c-0.122-0.243-0.249-0.482-0.384-0.717
	c-0.108-0.187-0.221-0.371-0.337-0.554c-0.153-0.241-0.312-0.478-0.478-0.709c-0.066-0.091-0.12-0.187-0.188-0.277
	c-0.064-0.085-0.137-0.159-0.201-0.242c-0.169-0.215-0.344-0.423-0.523-0.628c-0.156-0.179-0.314-0.356-0.477-0.525
	c-0.165-0.172-0.336-0.336-0.509-0.499c-0.19-0.181-0.382-0.358-0.58-0.527c-0.164-0.14-0.335-0.272-0.505-0.405
	c-0.215-0.167-0.429-0.332-0.65-0.486c-0.18-0.125-0.366-0.241-0.552-0.358c-0.219-0.138-0.438-0.276-0.663-0.403
	c-0.212-0.119-0.429-0.227-0.646-0.336c-0.208-0.104-0.415-0.208-0.627-0.302c-0.246-0.109-0.498-0.205-0.751-0.301
	c-0.195-0.074-0.389-0.149-0.586-0.215c-0.267-0.088-0.537-0.164-0.81-0.237c-0.198-0.054-0.396-0.108-0.597-0.153
	c-0.263-0.059-0.529-0.107-0.797-0.153c-0.226-0.038-0.45-0.075-0.677-0.103c-0.242-0.03-0.486-0.051-0.732-0.069
	c-0.263-0.02-0.526-0.034-0.79-0.04C255.217,30.014,255.11,30,255,30H15c-0.109,0-0.215,0.014-0.323,0.017
	c-0.266,0.006-0.53,0.02-0.795,0.04c-0.245,0.018-0.488,0.039-0.73,0.069c-0.226,0.028-0.45,0.065-0.675,0.103
	c-0.269,0.046-0.536,0.094-0.8,0.153c-0.199,0.045-0.395,0.1-0.592,0.152c-0.274,0.074-0.547,0.15-0.814,0.239
	c-0.195,0.065-0.386,0.139-0.579,0.212c-0.255,0.097-0.51,0.193-0.758,0.304c-0.21,0.093-0.414,0.196-0.62,0.299
	c-0.22,0.109-0.439,0.218-0.653,0.338C7.436,32.052,7.218,32.189,7,32.327c-0.187,0.118-0.373,0.234-0.555,0.36
	c-0.221,0.153-0.435,0.318-0.648,0.484c-0.171,0.134-0.342,0.267-0.507,0.407c-0.198,0.168-0.389,0.346-0.579,0.527
	c-0.173,0.163-0.344,0.327-0.509,0.499c-0.164,0.17-0.322,0.346-0.478,0.525c-0.179,0.205-0.353,0.413-0.522,0.628
	C3.137,35.841,3.064,35.915,3,36c-0.067,0.09-0.122,0.186-0.187,0.277c-0.166,0.231-0.325,0.468-0.478,0.709
	c-0.117,0.184-0.229,0.367-0.337,0.554c-0.135,0.235-0.262,0.474-0.384,0.717c-0.104,0.204-0.204,0.408-0.297,0.616
	c-0.104,0.231-0.199,0.467-0.291,0.705c-0.088,0.226-0.173,0.452-0.249,0.682c-0.075,0.227-0.143,0.457-0.207,0.688
	c-0.069,0.248-0.136,0.496-0.192,0.746c-0.049,0.22-0.091,0.441-0.131,0.665c-0.048,0.269-0.091,0.539-0.124,0.81
	c-0.026,0.211-0.046,0.425-0.063,0.639c-0.023,0.287-0.037,0.573-0.043,0.859C0.014,44.78,0,44.888,0,45v180c0,8.284,6.716,15,15,15
	h45v45c0,8.284,6.716,15,15,15h240c8.284,0,15-6.716,15-15V105C330,96.716,323.284,90,315,90z M210,60l-75,56.25L60,60H210z M30,75
	l96,72c2.667,2,5.833,3,9,3s6.333-1,9-3l96-72v135H30V75z M300,270H90v-30h165c8.284,0,15-6.716,15-15V120h30V270z"/>
<g>
</g>
<g>
</g>
<g>
</g>
<g>
</g>
<g>
</g>
<g>
</g>
<g>
</g>
<g>
</g>
<g>
</g>
<g>
</g>
<g>
</g>
<g>
</g>
<g>
</g>
<g>
</g>
<g>
</g>
</svg>
