<?xml version="1.0" encoding="iso-8859-1"?>
<!-- Generator: Adobe Illustrator 19.0.0, SVG Export Plug-In . SVG Version: 6.00 Build 0)  -->
<svg version="1.1" id="Layer_1" xmlns="http://www.w3.org/2000/svg" xmlns:xlink="http://www.w3.org/1999/xlink" x="0px" y="0px"
	 viewBox="0 0 330 330" style="enable-background:new 0 0 330 330;" xml:space="preserve">
<g id="XMLID_352_">
	<path id="XMLID_439_" d="M270,130.145V15c0-0.113-0.015-0.222-0.017-0.334c-0.007-0.285-0.021-0.569-0.044-0.855
		c-0.017-0.216-0.036-0.431-0.063-0.644c-0.033-0.27-0.075-0.538-0.123-0.806c-0.04-0.225-0.082-0.448-0.132-0.668
		c-0.056-0.249-0.122-0.496-0.19-0.743c-0.065-0.232-0.133-0.463-0.209-0.69c-0.076-0.229-0.16-0.454-0.248-0.68
		c-0.093-0.238-0.188-0.475-0.292-0.707c-0.093-0.207-0.193-0.412-0.297-0.616c-0.122-0.243-0.249-0.482-0.384-0.717
		c-0.108-0.187-0.221-0.371-0.337-0.554c-0.153-0.241-0.312-0.477-0.478-0.709C267.121,6.186,267.067,6.09,267,6
		c-0.064-0.085-0.137-0.159-0.201-0.242c-0.169-0.215-0.344-0.423-0.523-0.628c-0.156-0.179-0.314-0.355-0.477-0.525
		c-0.165-0.172-0.336-0.336-0.509-0.499c-0.19-0.18-0.382-0.358-0.58-0.527c-0.164-0.14-0.334-0.272-0.504-0.405
		c-0.215-0.167-0.43-0.333-0.652-0.487c-0.179-0.125-0.364-0.24-0.549-0.357c-0.221-0.139-0.439-0.277-0.666-0.404
		c-0.211-0.118-0.428-0.226-0.645-0.334c-0.208-0.104-0.416-0.21-0.629-0.303c-0.245-0.108-0.495-0.204-0.747-0.299
		c-0.196-0.075-0.392-0.15-0.591-0.217c-0.264-0.087-0.533-0.162-0.803-0.235c-0.201-0.054-0.401-0.109-0.603-0.155
		c-0.261-0.059-0.525-0.106-0.791-0.151c-0.228-0.039-0.455-0.076-0.684-0.104c-0.24-0.029-0.481-0.05-0.725-0.068
		c-0.267-0.02-0.532-0.034-0.799-0.041C255.214,0.014,255.108,0,255,0H15c-0.108,0-0.212,0.014-0.319,0.016
		c-0.269,0.006-0.536,0.021-0.803,0.041c-0.243,0.018-0.484,0.039-0.723,0.068c-0.229,0.028-0.456,0.065-0.683,0.104
		c-0.267,0.045-0.532,0.093-0.793,0.152c-0.201,0.045-0.399,0.1-0.597,0.153c-0.273,0.074-0.544,0.149-0.81,0.237
		c-0.197,0.065-0.39,0.141-0.584,0.214C9.434,1.082,9.181,1.179,8.933,1.289c-0.21,0.093-0.415,0.197-0.623,0.3
		c-0.219,0.11-0.438,0.218-0.65,0.337C7.436,2.052,7.218,2.19,6.999,2.327c-0.186,0.118-0.373,0.234-0.554,0.36
		C6.225,2.841,6.011,3.006,5.797,3.172C5.626,3.306,5.455,3.438,5.29,3.579C5.092,3.747,4.901,3.925,4.711,4.105
		C4.538,4.269,4.367,4.433,4.202,4.604C4.038,4.774,3.88,4.951,3.724,5.13C3.544,5.335,3.37,5.543,3.202,5.758
		C3.137,5.841,3.064,5.915,3,6C2.933,6.09,2.878,6.186,2.813,6.277C2.647,6.509,2.488,6.745,2.335,6.986
		C2.219,7.17,2.106,7.353,1.998,7.541C1.863,7.775,1.737,8.015,1.614,8.258C1.511,8.462,1.41,8.666,1.317,8.874
		C1.213,9.106,1.118,9.341,1.026,9.579c-0.088,0.226-0.173,0.452-0.249,0.682c-0.075,0.227-0.143,0.457-0.207,0.688
		c-0.069,0.248-0.136,0.496-0.192,0.746c-0.049,0.22-0.091,0.441-0.131,0.665c-0.048,0.269-0.091,0.539-0.124,0.811
		c-0.026,0.211-0.046,0.425-0.063,0.639c-0.023,0.287-0.037,0.573-0.043,0.859C0.014,14.78,0,14.888,0,15v180
		c0,8.284,6.716,15,15,15h106.076c-0.704,4.901-1.076,9.907-1.076,15c0,57.897,47.102,105,105,105s105-47.103,105-105
		C330,183.198,305.443,147.027,270,130.145z M210,30l-75,56.25L60,30H210z M30,180V45l96,72c2.667,2,5.833,3,9,3s6.333-1,9-3l96-72
		v76.076c-4.9-0.704-9.907-1.076-15-1.076c-41.803,0-77.973,24.557-94.855,60H30z M225,300c-41.355,0-75-33.645-75-75
		s33.645-75,75-75s75,33.645,75,75S266.355,300,225,300z"/>
	<path id="XMLID_445_" d="M244.393,214.397l-4.394,4.393v-23.787c0-8.284-6.716-15-15-15c-8.284,0-15,6.716-15,15v23.787
		l-4.393-4.393c-5.857-5.858-15.355-5.858-21.213,0c-5.858,5.858-5.858,15.355,0,21.213l29.997,29.997
		c0.351,0.351,0.72,0.682,1.103,0.997c0.172,0.141,0.352,0.262,0.527,0.394c0.216,0.162,0.427,0.329,0.651,0.479
		c0.213,0.142,0.435,0.266,0.653,0.397c0.201,0.12,0.397,0.247,0.604,0.357c0.224,0.12,0.454,0.221,0.683,0.329
		c0.215,0.102,0.427,0.209,0.648,0.3c0.223,0.092,0.45,0.167,0.676,0.247c0.235,0.085,0.469,0.175,0.71,0.249
		c0.226,0.068,0.454,0.118,0.683,0.175c0.246,0.062,0.49,0.131,0.741,0.181c0.262,0.052,0.526,0.083,0.791,0.121
		c0.22,0.032,0.436,0.073,0.66,0.095c0.492,0.048,0.985,0.075,1.479,0.075c0.494,0,0.987-0.026,1.48-0.075
		c0.224-0.022,0.44-0.064,0.66-0.095c0.265-0.038,0.529-0.069,0.791-0.121c0.251-0.05,0.495-0.119,0.741-0.181
		c0.229-0.057,0.457-0.107,0.683-0.175c0.241-0.073,0.475-0.164,0.71-0.249c0.226-0.081,0.453-0.155,0.676-0.247
		c0.221-0.091,0.433-0.199,0.647-0.3c0.229-0.107,0.459-0.209,0.683-0.329c0.207-0.111,0.403-0.237,0.604-0.357
		c0.219-0.131,0.441-0.254,0.653-0.397c0.225-0.15,0.436-0.317,0.651-0.479c0.176-0.132,0.355-0.253,0.527-0.394
		c0.383-0.315,0.752-0.646,1.102-0.997l29.997-29.997c5.858-5.858,5.858-15.355,0-21.213
		C259.748,208.539,250.25,208.539,244.393,214.397z"/>
</g>
<g>
</g>
<g>
</g>
<g>
</g>
<g>
</g>
<g>
</g>
<g>
</g>
<g>
</g>
<g>
</g>
<g>
</g>
<g>
</g>
<g>
</g>
<g>
</g>
<g>
</g>
<g>
</g>
<g>
</g>
</svg>
