<?xml version="1.0" encoding="iso-8859-1"?>
<!-- Generator: Adobe Illustrator 19.0.0, SVG Export Plug-In . SVG Version: 6.00 Build 0)  -->
<svg version="1.1" id="Layer_1" xmlns="http://www.w3.org/2000/svg" xmlns:xlink="http://www.w3.org/1999/xlink" x="0px" y="0px"
	 viewBox="0 0 330 330" style="enable-background:new 0 0 330 330;" xml:space="preserve">
<g id="XMLID_446_">
	<path id="XMLID_447_" d="M270,130.145V15c0-0.112-0.014-0.22-0.017-0.332c-0.006-0.287-0.021-0.573-0.043-0.859
		c-0.017-0.214-0.037-0.428-0.063-0.639c-0.033-0.271-0.076-0.541-0.124-0.811c-0.04-0.224-0.082-0.445-0.131-0.665
		c-0.056-0.25-0.123-0.498-0.192-0.746c-0.065-0.231-0.132-0.461-0.207-0.688c-0.076-0.229-0.162-0.456-0.249-0.682
		c-0.092-0.238-0.188-0.474-0.292-0.705c-0.093-0.208-0.193-0.412-0.297-0.616c-0.122-0.243-0.249-0.482-0.384-0.717
		c-0.107-0.187-0.22-0.371-0.337-0.554c-0.153-0.241-0.312-0.477-0.478-0.709C267.122,6.186,267.068,6.09,267,6
		c-0.064-0.085-0.137-0.159-0.202-0.243c-0.168-0.214-0.342-0.422-0.521-0.626c-0.157-0.18-0.316-0.357-0.48-0.528
		c-0.164-0.17-0.333-0.334-0.505-0.496c-0.191-0.181-0.384-0.36-0.583-0.53c-0.163-0.139-0.332-0.27-0.501-0.401
		c-0.216-0.169-0.432-0.335-0.656-0.49c-0.177-0.124-0.361-0.238-0.544-0.354c-0.222-0.14-0.443-0.28-0.671-0.408
		c-0.209-0.117-0.424-0.224-0.64-0.331c-0.21-0.105-0.419-0.211-0.634-0.305c-0.243-0.108-0.493-0.203-0.743-0.298
		c-0.198-0.075-0.394-0.151-0.595-0.218c-0.263-0.087-0.531-0.162-0.8-0.234c-0.202-0.055-0.402-0.11-0.606-0.156
		c-0.26-0.059-0.522-0.106-0.787-0.151c-0.229-0.04-0.458-0.077-0.688-0.105c-0.238-0.029-0.478-0.05-0.72-0.068
		c-0.268-0.02-0.536-0.035-0.805-0.041C255.212,0.014,255.108,0,255,0H15c-0.108,0-0.212,0.014-0.319,0.016
		c-0.269,0.006-0.536,0.021-0.803,0.041c-0.242,0.018-0.483,0.039-0.722,0.068c-0.23,0.028-0.457,0.065-0.684,0.104
		c-0.267,0.045-0.531,0.093-0.793,0.152c-0.201,0.046-0.4,0.1-0.6,0.154c-0.271,0.074-0.542,0.148-0.807,0.237
		C10.074,0.838,9.88,0.913,9.685,0.987C9.432,1.083,9.18,1.179,8.935,1.288C8.723,1.382,8.516,1.486,8.308,1.59
		C8.09,1.699,7.873,1.807,7.661,1.925C7.435,2.052,7.216,2.19,6.997,2.329c-0.185,0.117-0.371,0.232-0.55,0.357
		C6.225,2.841,6.01,3.007,5.795,3.174c-0.17,0.133-0.34,0.264-0.504,0.404C5.092,3.747,4.9,3.926,4.709,4.106
		C4.537,4.269,4.367,4.433,4.203,4.603C4.039,4.774,3.88,4.951,3.724,5.131C3.544,5.335,3.37,5.543,3.202,5.757
		C3.137,5.841,3.064,5.915,3,6C2.932,6.09,2.878,6.186,2.813,6.277C2.647,6.509,2.488,6.745,2.335,6.986
		C2.219,7.17,2.106,7.353,1.998,7.541C1.863,7.775,1.737,8.015,1.614,8.258C1.511,8.462,1.411,8.666,1.317,8.874
		C1.213,9.106,1.118,9.341,1.026,9.579c-0.088,0.226-0.173,0.452-0.25,0.682c-0.075,0.227-0.142,0.457-0.207,0.688
		c-0.069,0.248-0.136,0.496-0.192,0.746c-0.049,0.22-0.091,0.441-0.131,0.665c-0.048,0.269-0.091,0.539-0.124,0.811
		c-0.026,0.211-0.045,0.425-0.062,0.639c-0.022,0.287-0.037,0.573-0.043,0.859C0.014,14.78,0,14.888,0,15v180
		c0,8.284,6.716,15,15,15h106.076c-0.704,4.901-1.076,9.907-1.076,15c0,57.897,47.103,105,105,105s105-47.103,105-105
		C330,183.198,305.443,147.027,270,130.145z M210,30l-75,56.25L60,30H210z M30,180V45l96,72c2.666,2,5.833,3,9,3
		c3.166,0,6.333-1,9-3l96-72v76.076c-4.901-0.704-9.907-1.076-15-1.076c-41.802,0-77.973,24.557-94.855,60H30z M225,300
		c-41.355,0-75-33.645-75-75s33.645-75,75-75s75,33.645,75,75S266.355,300,225,300z"/>
	<path id="XMLID_452_" d="M235.609,184.396c-0.35-0.35-0.719-0.682-1.103-0.997c-0.172-0.142-0.353-0.264-0.529-0.396
		c-0.214-0.161-0.425-0.327-0.648-0.477c-0.215-0.144-0.438-0.269-0.659-0.401c-0.199-0.119-0.394-0.244-0.599-0.354
		c-0.227-0.121-0.46-0.224-0.69-0.333c-0.212-0.1-0.421-0.206-0.639-0.296c-0.226-0.094-0.457-0.169-0.687-0.251
		c-0.232-0.084-0.461-0.172-0.698-0.245c-0.232-0.07-0.467-0.121-0.701-0.18c-0.24-0.061-0.478-0.128-0.722-0.177
		c-0.273-0.054-0.548-0.087-0.823-0.126c-0.21-0.03-0.416-0.07-0.628-0.09c-0.986-0.098-1.979-0.098-2.965,0
		c-0.212,0.021-0.419,0.061-0.628,0.09c-0.275,0.039-0.55,0.071-0.823,0.126c-0.245,0.049-0.482,0.116-0.722,0.177
		c-0.234,0.059-0.469,0.11-0.701,0.18c-0.237,0.072-0.466,0.161-0.698,0.245c-0.23,0.082-0.46,0.158-0.687,0.251
		c-0.218,0.09-0.427,0.196-0.639,0.296c-0.231,0.109-0.464,0.212-0.69,0.333c-0.205,0.11-0.399,0.235-0.599,0.354
		c-0.221,0.132-0.444,0.257-0.659,0.401c-0.223,0.149-0.434,0.316-0.648,0.477c-0.176,0.132-0.357,0.254-0.529,0.396
		c-0.383,0.314-0.753,0.646-1.103,0.997l-29.997,29.998c-5.858,5.858-5.858,15.355,0,21.213c5.857,5.858,15.355,5.858,21.213,0
		l4.394-4.393V255c0,8.284,6.716,15,15,15c8.284,0,15-6.716,15-15v-23.787l4.394,4.393C247.322,238.536,251.161,240,255,240
		c3.839,0,7.678-1.464,10.606-4.394c5.858-5.858,5.858-15.355,0-21.213L235.609,184.396z"/>
</g>
<g>
</g>
<g>
</g>
<g>
</g>
<g>
</g>
<g>
</g>
<g>
</g>
<g>
</g>
<g>
</g>
<g>
</g>
<g>
</g>
<g>
</g>
<g>
</g>
<g>
</g>
<g>
</g>
<g>
</g>
</svg>
