<?xml version="1.0" encoding="iso-8859-1"?>
<!-- Generator: Adobe Illustrator 19.0.0, SVG Export Plug-In . SVG Version: 6.00 Build 0)  -->
<svg version="1.1" id="Layer_1" xmlns="http://www.w3.org/2000/svg" xmlns:xlink="http://www.w3.org/1999/xlink" x="0px" y="0px"
	 viewBox="0 0 330 330" style="enable-background:new 0 0 330 330;" xml:space="preserve">
<g id="XMLID_237_">
	<path id="XMLID_238_" d="M270,130.145V15c0-0.112-0.014-0.22-0.017-0.332c-0.006-0.287-0.021-0.573-0.043-0.859
		c-0.017-0.214-0.037-0.428-0.063-0.639c-0.033-0.271-0.076-0.541-0.124-0.811c-0.04-0.224-0.082-0.445-0.131-0.665
		c-0.056-0.25-0.123-0.498-0.192-0.746c-0.065-0.231-0.132-0.461-0.207-0.688c-0.076-0.229-0.162-0.456-0.249-0.682
		c-0.092-0.238-0.188-0.474-0.292-0.705c-0.093-0.208-0.193-0.412-0.297-0.616c-0.122-0.243-0.249-0.482-0.384-0.717
		c-0.107-0.187-0.22-0.371-0.337-0.554c-0.153-0.241-0.312-0.477-0.478-0.709C267.122,6.186,267.068,6.09,267,6
		c-0.064-0.085-0.137-0.159-0.202-0.243c-0.168-0.214-0.342-0.422-0.521-0.626c-0.157-0.18-0.316-0.357-0.48-0.528
		c-0.164-0.17-0.333-0.334-0.505-0.496c-0.191-0.181-0.384-0.36-0.583-0.53c-0.163-0.139-0.332-0.27-0.501-0.401
		c-0.216-0.169-0.432-0.335-0.655-0.49c-0.178-0.124-0.362-0.238-0.545-0.354c-0.221-0.14-0.442-0.279-0.669-0.406
		c-0.21-0.118-0.426-0.225-0.643-0.333c-0.209-0.104-0.418-0.21-0.631-0.304c-0.245-0.108-0.496-0.204-0.747-0.299
		c-0.196-0.074-0.391-0.15-0.59-0.216c-0.265-0.088-0.534-0.163-0.806-0.236c-0.2-0.054-0.398-0.109-0.601-0.155
		c-0.262-0.059-0.526-0.107-0.793-0.152c-0.227-0.039-0.453-0.076-0.682-0.104c-0.24-0.029-0.483-0.05-0.727-0.068
		c-0.266-0.02-0.531-0.034-0.797-0.04C255.215,0.014,255.109,0,255,0H15c-0.107,0-0.211,0.014-0.318,0.016
		c-0.269,0.006-0.537,0.021-0.805,0.041c-0.242,0.018-0.482,0.039-0.721,0.068c-0.229,0.028-0.457,0.065-0.684,0.104
		c-0.267,0.045-0.531,0.093-0.793,0.152c-0.201,0.046-0.4,0.1-0.599,0.154c-0.272,0.074-0.542,0.149-0.808,0.237
		c-0.197,0.065-0.391,0.141-0.585,0.214C9.433,1.083,9.18,1.179,8.934,1.289c-0.211,0.093-0.416,0.197-0.623,0.3
		C8.091,1.698,7.872,1.807,7.659,1.926C7.435,2.052,7.218,2.19,7,2.327C6.813,2.445,6.626,2.562,6.445,2.688
		C6.224,2.841,6.011,3.006,5.797,3.172C5.626,3.306,5.455,3.438,5.29,3.579C5.092,3.747,4.901,3.925,4.711,4.105
		C4.538,4.269,4.367,4.433,4.202,4.604C4.039,4.774,3.88,4.951,3.724,5.13C3.544,5.335,3.37,5.543,3.202,5.757
		C3.137,5.841,3.064,5.915,3,6C2.932,6.09,2.878,6.186,2.813,6.277C2.647,6.509,2.488,6.745,2.335,6.986
		C2.219,7.17,2.106,7.353,1.998,7.541C1.863,7.775,1.737,8.015,1.614,8.258C1.511,8.462,1.411,8.666,1.317,8.874
		C1.213,9.106,1.118,9.341,1.026,9.579c-0.088,0.226-0.173,0.452-0.25,0.682c-0.075,0.227-0.142,0.457-0.207,0.688
		c-0.069,0.248-0.136,0.496-0.192,0.746c-0.049,0.22-0.091,0.441-0.131,0.665c-0.048,0.269-0.091,0.539-0.124,0.811
		c-0.026,0.211-0.045,0.425-0.062,0.639c-0.022,0.287-0.037,0.573-0.043,0.859C0.014,14.78,0,14.888,0,15v180
		c0,8.284,6.716,15,15,15h106.076c-0.704,4.901-1.076,9.907-1.076,15c0,57.897,47.103,105,105,105s105-47.103,105-105
		C330,183.198,305.443,147.027,270,130.145z M210,30l-75,56.25L60,30H210z M30,180V45l96,72c2.666,2,5.833,3,9,3
		c3.166,0,6.333-1,9-3l96-72v76.076c-4.901-0.704-9.907-1.076-15-1.076c-41.802,0-77.973,24.557-94.855,60H30z M225,300
		c-41.355,0-75-33.645-75-75s33.645-75,75-75s75,33.645,75,75S266.355,300,225,300z"/>
	<path id="XMLID_243_" d="M255,210h-60c-8.284,0-15,6.716-15,15s6.716,15,15,15h60c8.284,0,15-6.716,15-15S263.284,210,255,210z"/>
</g>
<g>
</g>
<g>
</g>
<g>
</g>
<g>
</g>
<g>
</g>
<g>
</g>
<g>
</g>
<g>
</g>
<g>
</g>
<g>
</g>
<g>
</g>
<g>
</g>
<g>
</g>
<g>
</g>
<g>
</g>
</svg>
