<?xml version="1.0" encoding="iso-8859-1"?>
<!-- Generator: Adobe Illustrator 19.0.0, SVG Export Plug-In . SVG Version: 6.00 Build 0)  -->
<svg version="1.1" id="Layer_1" xmlns="http://www.w3.org/2000/svg" xmlns:xlink="http://www.w3.org/1999/xlink" x="0px" y="0px"
	 viewBox="0 0 330 330" style="enable-background:new 0 0 330 330;" xml:space="preserve">
<path id="XMLID_338_" d="M315,200h-5v-25c0-25.127-16.943-46.356-40-52.904V15c0-0.113-0.015-0.222-0.017-0.334
	c-0.007-0.285-0.021-0.569-0.044-0.855c-0.017-0.216-0.037-0.431-0.063-0.644c-0.033-0.27-0.075-0.538-0.123-0.806
	c-0.04-0.225-0.082-0.448-0.132-0.668c-0.056-0.249-0.122-0.496-0.19-0.743c-0.065-0.232-0.133-0.463-0.209-0.69
	c-0.076-0.229-0.16-0.454-0.248-0.68c-0.093-0.238-0.188-0.475-0.292-0.707c-0.093-0.207-0.193-0.412-0.297-0.616
	c-0.122-0.243-0.249-0.482-0.384-0.717c-0.108-0.187-0.221-0.371-0.338-0.554c-0.152-0.241-0.311-0.477-0.477-0.709
	C267.121,6.186,267.067,6.09,267,6c-0.065-0.085-0.137-0.159-0.201-0.242c-0.169-0.215-0.344-0.423-0.523-0.628
	c-0.156-0.179-0.314-0.355-0.477-0.525c-0.165-0.172-0.335-0.336-0.509-0.499c-0.19-0.18-0.382-0.358-0.58-0.527
	c-0.164-0.14-0.334-0.272-0.504-0.405c-0.215-0.167-0.43-0.333-0.652-0.487c-0.179-0.125-0.364-0.24-0.549-0.357
	c-0.221-0.139-0.439-0.277-0.666-0.404c-0.211-0.118-0.428-0.226-0.645-0.334c-0.209-0.104-0.416-0.21-0.629-0.303
	c-0.244-0.108-0.495-0.204-0.747-0.299c-0.196-0.075-0.392-0.15-0.591-0.217c-0.264-0.087-0.533-0.162-0.803-0.235
	c-0.201-0.054-0.401-0.109-0.603-0.155c-0.261-0.059-0.525-0.106-0.791-0.151c-0.228-0.039-0.455-0.076-0.684-0.104
	c-0.24-0.029-0.481-0.05-0.725-0.068c-0.267-0.02-0.532-0.034-0.799-0.041C255.214,0.014,255.108,0,255,0H15
	c-0.107,0-0.212,0.014-0.319,0.016c-0.269,0.006-0.536,0.021-0.803,0.041c-0.243,0.018-0.483,0.039-0.723,0.068
	c-0.229,0.028-0.457,0.065-0.685,0.104c-0.266,0.045-0.53,0.093-0.792,0.152c-0.201,0.046-0.4,0.1-0.6,0.154
	c-0.271,0.074-0.542,0.148-0.807,0.236C10.074,0.838,9.88,0.914,9.684,0.987C9.432,1.083,9.181,1.179,8.935,1.288
	c-0.212,0.094-0.42,0.199-0.629,0.303C8.089,1.699,7.873,1.807,7.662,1.925C7.436,2.052,7.215,2.191,6.994,2.33
	C6.811,2.447,6.626,2.562,6.447,2.685c-0.223,0.155-0.438,0.322-0.654,0.49C5.624,3.307,5.455,3.438,5.292,3.577
	c-0.199,0.17-0.393,0.349-0.584,0.531C4.536,4.269,4.367,4.433,4.203,4.603C4.039,4.774,3.88,4.951,3.723,5.131
	C3.544,5.335,3.37,5.543,3.202,5.757C3.137,5.841,3.065,5.915,3,6C2.933,6.09,2.879,6.186,2.813,6.277
	C2.647,6.509,2.488,6.745,2.335,6.986C2.219,7.17,2.105,7.353,1.998,7.541C1.863,7.775,1.736,8.016,1.613,8.258
	C1.511,8.462,1.41,8.666,1.318,8.873c-0.105,0.233-0.2,0.469-0.293,0.707c-0.088,0.226-0.172,0.451-0.248,0.68
	c-0.076,0.227-0.143,0.458-0.209,0.69c-0.068,0.247-0.135,0.493-0.191,0.743c-0.05,0.221-0.092,0.444-0.132,0.668
	c-0.048,0.269-0.09,0.536-0.123,0.806c-0.026,0.214-0.046,0.429-0.063,0.646c-0.023,0.284-0.037,0.568-0.044,0.852
	C0.015,14.777,0,14.887,0,15v180c0,8.284,6.716,15,15,15h165.872c-0.555,1.566-0.872,3.244-0.872,5v100c0,8.284,6.716,15,15,15h120
	c8.284,0,15-6.716,15-15V215C330,206.716,323.284,200,315,200z M280,175v25h-50v-25c0-13.785,11.215-25,25-25
	C268.785,150,280,161.215,280,175z M210,30l-75,56.25L60,30H210z M30,45l96,72c2.667,2,5.833,3,9,3s6.333-1,9-3l96-72v77.096
	c-23.057,6.547-40,27.777-40,52.904v5H30V45z M300,300h-90v-70h5h80h5V300z"/>
<g>
</g>
<g>
</g>
<g>
</g>
<g>
</g>
<g>
</g>
<g>
</g>
<g>
</g>
<g>
</g>
<g>
</g>
<g>
</g>
<g>
</g>
<g>
</g>
<g>
</g>
<g>
</g>
<g>
</g>
</svg>
