<?xml version="1.0" encoding="iso-8859-1"?>
<!-- Generator: Adobe Illustrator 19.0.0, SVG Export Plug-In . SVG Version: 6.00 Build 0)  -->
<svg version="1.1" id="Layer_1" xmlns="http://www.w3.org/2000/svg" xmlns:xlink="http://www.w3.org/1999/xlink" x="0px" y="0px"
	 viewBox="0 0 300 300" style="enable-background:new 0 0 300 300;" xml:space="preserve">
<path id="XMLID_13_" d="M284.984,104.687c-0.003-0.132,0.005-0.264-0.001-0.396c-0.008-0.161-0.03-0.321-0.043-0.482
	c-0.017-0.215-0.037-0.427-0.063-0.639c-0.006-0.05-0.008-0.1-0.015-0.15c-0.007-0.048-0.007-0.098-0.015-0.146
	c-0.024-0.173-0.064-0.344-0.095-0.517c-0.039-0.223-0.081-0.443-0.131-0.663c-0.009-0.04-0.014-0.081-0.024-0.121
	c-0.009-0.038-0.013-0.076-0.022-0.114c-0.042-0.172-0.098-0.341-0.146-0.512c-0.063-0.225-0.128-0.449-0.201-0.67
	c-0.024-0.073-0.043-0.148-0.068-0.223c-0.056-0.16-0.126-0.317-0.188-0.477c-0.083-0.215-0.167-0.429-0.259-0.639
	c-0.039-0.089-0.074-0.179-0.115-0.267c-0.065-0.141-0.144-0.277-0.214-0.417c-0.1-0.198-0.199-0.397-0.308-0.591
	c-0.062-0.11-0.121-0.221-0.185-0.329c-0.071-0.119-0.153-0.232-0.227-0.351c-0.115-0.181-0.227-0.361-0.349-0.536
	c-0.087-0.127-0.174-0.253-0.267-0.377c-0.018-0.024-0.031-0.049-0.049-0.072c-0.064-0.085-0.137-0.159-0.202-0.243
	c-0.122-0.156-0.245-0.313-0.374-0.464c-0.105-0.123-0.208-0.246-0.318-0.367c-0.101-0.111-0.206-0.216-0.31-0.324
	c-0.131-0.135-0.263-0.268-0.398-0.398c-0.108-0.104-0.212-0.209-0.324-0.31c-0.121-0.109-0.244-0.213-0.368-0.318
	c-0.151-0.128-0.307-0.251-0.464-0.373c-0.083-0.065-0.157-0.138-0.243-0.202l-0.179-0.134c-0.019-0.014-0.037-0.028-0.056-0.042
	L159,3c-5.333-4-12.667-4-18,0L21.229,92.828c-0.013,0.01-0.024,0.02-0.037,0.028L21,93c-0.085,0.064-0.159,0.137-0.243,0.202
	c-0.158,0.124-0.316,0.248-0.469,0.378c-0.121,0.103-0.241,0.204-0.359,0.311c-0.113,0.102-0.218,0.209-0.327,0.313
	c-0.136,0.132-0.269,0.266-0.401,0.402c-0.103,0.105-0.207,0.209-0.306,0.319c-0.11,0.12-0.214,0.245-0.319,0.368
	c-0.129,0.151-0.251,0.309-0.374,0.465C18.136,95.841,18.064,95.915,18,96c-0.018,0.023-0.031,0.049-0.049,0.072
	c-0.092,0.124-0.179,0.25-0.267,0.377c-0.122,0.175-0.234,0.355-0.349,0.536c-0.074,0.118-0.156,0.231-0.227,0.351
	c-0.065,0.108-0.124,0.219-0.186,0.329c-0.109,0.193-0.208,0.393-0.308,0.591c-0.07,0.14-0.149,0.276-0.214,0.417
	c-0.041,0.088-0.076,0.178-0.115,0.267c-0.093,0.21-0.176,0.424-0.259,0.639c-0.062,0.159-0.132,0.316-0.188,0.477
	c-0.025,0.074-0.044,0.149-0.068,0.223c-0.073,0.221-0.138,0.445-0.201,0.67c-0.048,0.171-0.104,0.34-0.146,0.512
	c-0.009,0.038-0.014,0.076-0.022,0.114c-0.01,0.04-0.015,0.081-0.024,0.121c-0.049,0.22-0.091,0.441-0.131,0.663
	c-0.031,0.173-0.07,0.344-0.095,0.517c-0.007,0.048-0.008,0.098-0.015,0.146c-0.006,0.051-0.008,0.101-0.015,0.15
	c-0.025,0.212-0.045,0.424-0.063,0.639c-0.013,0.161-0.035,0.321-0.043,0.482c-0.006,0.132,0.001,0.264-0.001,0.396
	C15.014,104.792,15,104.895,15,105v180c0,8.284,6.716,15,15,15h240c8.284,0,15-6.716,15-15V105
	C285,104.895,284.986,104.792,284.984,104.687z M150,33.75L245,105l-95,71.25L55,105L150,33.75z M45,270V135l96,72
	c2.667,2,5.834,3,9,3c3.167,0,6.334-1,9-3l96-72v135H45z"/>
<g>
</g>
<g>
</g>
<g>
</g>
<g>
</g>
<g>
</g>
<g>
</g>
<g>
</g>
<g>
</g>
<g>
</g>
<g>
</g>
<g>
</g>
<g>
</g>
<g>
</g>
<g>
</g>
<g>
</g>
</svg>
