<?xml version="1.0" encoding="iso-8859-1"?>
<!-- Generator: Adobe Illustrator 19.0.0, SVG Export Plug-In . SVG Version: 6.00 Build 0)  -->
<svg version="1.1" id="Layer_1" xmlns="http://www.w3.org/2000/svg" xmlns:xlink="http://www.w3.org/1999/xlink" x="0px" y="0px"
	 viewBox="0 0 330 330" style="enable-background:new 0 0 330 330;" xml:space="preserve">
<g id="XMLID_229_">
	<path id="XMLID_230_" d="M270,130.145V15c0-0.113-0.015-0.222-0.017-0.334c-0.007-0.285-0.021-0.569-0.044-0.855
		c-0.017-0.216-0.036-0.431-0.063-0.644c-0.033-0.27-0.075-0.538-0.123-0.806c-0.04-0.225-0.082-0.448-0.132-0.668
		c-0.056-0.249-0.122-0.496-0.19-0.743c-0.065-0.232-0.133-0.463-0.209-0.69c-0.076-0.229-0.16-0.454-0.248-0.68
		c-0.093-0.238-0.188-0.475-0.292-0.707c-0.093-0.207-0.193-0.412-0.297-0.616c-0.122-0.243-0.249-0.482-0.384-0.717
		c-0.108-0.187-0.221-0.371-0.337-0.554c-0.153-0.241-0.312-0.477-0.478-0.709C267.121,6.186,267.067,6.09,267,6
		c-0.064-0.085-0.137-0.159-0.201-0.242c-0.169-0.215-0.344-0.423-0.523-0.628c-0.156-0.179-0.314-0.355-0.477-0.525
		c-0.165-0.172-0.336-0.336-0.509-0.499c-0.19-0.18-0.382-0.358-0.58-0.527c-0.164-0.14-0.334-0.271-0.504-0.404
		c-0.215-0.168-0.43-0.333-0.652-0.488c-0.179-0.124-0.363-0.239-0.547-0.355c-0.222-0.14-0.441-0.278-0.668-0.406
		c-0.21-0.118-0.426-0.224-0.642-0.332c-0.21-0.104-0.419-0.211-0.634-0.305c-0.242-0.108-0.491-0.203-0.741-0.298
		c-0.198-0.075-0.395-0.151-0.597-0.218c-0.262-0.087-0.529-0.161-0.798-0.234c-0.202-0.055-0.404-0.11-0.608-0.156
		c-0.259-0.059-0.521-0.106-0.784-0.151c-0.23-0.04-0.46-0.077-0.692-0.106c-0.236-0.029-0.476-0.05-0.716-0.068
		c-0.27-0.02-0.538-0.035-0.809-0.041C255.211,0.014,255.107,0,255,0H15c-0.107,0-0.211,0.014-0.318,0.016
		c-0.268,0.006-0.537,0.02-0.805,0.041c-0.242,0.018-0.483,0.039-0.722,0.068c-0.229,0.028-0.456,0.065-0.684,0.104
		c-0.267,0.045-0.532,0.093-0.793,0.152c-0.201,0.045-0.398,0.1-0.597,0.153c-0.273,0.074-0.544,0.149-0.811,0.238
		c-0.196,0.065-0.388,0.14-0.581,0.213C9.435,1.082,9.181,1.179,8.933,1.289c-0.21,0.092-0.414,0.196-0.619,0.298
		c-0.221,0.11-0.441,0.22-0.655,0.34C7.436,2.052,7.22,2.188,7.003,2.325C6.815,2.444,6.627,2.562,6.444,2.688
		C6.225,2.841,6.012,3.005,5.799,3.17C5.627,3.305,5.455,3.438,5.289,3.58C5.092,3.747,4.901,3.925,4.712,4.103
		C4.539,4.268,4.367,4.433,4.201,4.605C4.038,4.774,3.881,4.951,3.725,5.13C3.545,5.334,3.37,5.543,3.202,5.758
		C3.137,5.841,3.063,5.915,3,6C2.933,6.09,2.878,6.186,2.813,6.277C2.647,6.509,2.488,6.745,2.335,6.986
		C2.219,7.17,2.106,7.353,1.998,7.541C1.863,7.775,1.737,8.015,1.614,8.258C1.511,8.462,1.41,8.666,1.317,8.874
		C1.213,9.106,1.118,9.341,1.026,9.579c-0.088,0.226-0.173,0.452-0.249,0.682c-0.075,0.227-0.143,0.457-0.207,0.688
		c-0.069,0.248-0.136,0.496-0.192,0.746c-0.049,0.22-0.091,0.441-0.131,0.665c-0.048,0.269-0.091,0.539-0.124,0.811
		c-0.026,0.211-0.046,0.425-0.063,0.639c-0.023,0.287-0.037,0.573-0.043,0.859C0.014,14.78,0,14.888,0,15v180
		c0,8.284,6.716,15,15,15h106.076c-0.704,4.901-1.076,9.907-1.076,15c0,57.897,47.102,105,105,105s105-47.103,105-105
		C330,183.198,305.443,147.027,270,130.145z M210,30l-75,56.25L60,30H210z M30,180V45l96,72c2.667,2,5.833,3,9,3s6.333-1,9-3l96-72
		v76.076c-4.9-0.704-9.907-1.076-15-1.076c-41.803,0-77.973,24.557-94.855,60H30z M225,300c-41.355,0-75-33.645-75-75
		s33.645-75,75-75s75,33.645,75,75S266.355,300,225,300z"/>
	<path id="XMLID_236_" d="M255,210h-15v-15c0-8.284-6.716-15-15-15s-15,6.716-15,15v15h-15c-8.284,0-15,6.716-15,15s6.716,15,15,15
		h15v15c0,8.284,6.716,15,15,15s15-6.716,15-15v-15h15c8.284,0,15-6.716,15-15S263.284,210,255,210z"/>
</g>
<g>
</g>
<g>
</g>
<g>
</g>
<g>
</g>
<g>
</g>
<g>
</g>
<g>
</g>
<g>
</g>
<g>
</g>
<g>
</g>
<g>
</g>
<g>
</g>
<g>
</g>
<g>
</g>
<g>
</g>
</svg>
