<?xml version="1.0" encoding="iso-8859-1"?>
<!-- Generator: Adobe Illustrator 19.0.0, SVG Export Plug-In . SVG Version: 6.00 Build 0)  -->
<svg version="1.1" id="Layer_1" xmlns="http://www.w3.org/2000/svg" xmlns:xlink="http://www.w3.org/1999/xlink" x="0px" y="0px"
	 viewBox="0 0 330 330" style="enable-background:new 0 0 330 330;" xml:space="preserve">
<g id="XMLID_2_">
	<path id="XMLID_4_" d="M315,175H215c-8.284,0-15,6.716-15,15v35h-70v-35c0-8.284-6.716-15-15-15H15c-8.284,0-15,6.716-15,15v110
		c0,8.284,6.716,15,15,15h300c8.284,0,15-6.716,15-15V190C330,181.716,323.284,175,315,175z M300,285H30v-80h70v35
		c0,8.284,6.716,15,15,15h100c8.284,0,15-6.716,15-15v-35h70V285z"/>
	<path id="XMLID_7_" d="M154.391,160.604c0.35,0.352,0.719,0.684,1.103,0.998c0.167,0.137,0.344,0.256,0.515,0.385
		c0.219,0.165,0.435,0.335,0.664,0.488c0.209,0.14,0.427,0.261,0.641,0.389c0.205,0.123,0.406,0.252,0.618,0.365
		c0.22,0.117,0.446,0.217,0.67,0.323c0.219,0.104,0.435,0.213,0.66,0.306c0.219,0.091,0.442,0.164,0.664,0.244
		c0.239,0.086,0.476,0.178,0.721,0.252c0.223,0.066,0.449,0.116,0.674,0.173c0.249,0.063,0.496,0.133,0.749,0.183
		c0.261,0.053,0.524,0.083,0.787,0.121c0.222,0.031,0.439,0.073,0.664,0.096c0.492,0.048,0.986,0.074,1.48,0.074
		s0.988-0.026,1.48-0.074c0.224-0.022,0.441-0.064,0.663-0.096c0.263-0.038,0.525-0.068,0.786-0.121
		c0.254-0.05,0.5-0.119,0.75-0.183c0.225-0.057,0.451-0.106,0.674-0.173c0.245-0.074,0.482-0.166,0.721-0.252
		c0.222-0.08,0.445-0.153,0.664-0.244c0.225-0.093,0.44-0.202,0.66-0.306c0.225-0.107,0.45-0.206,0.67-0.323
		c0.212-0.113,0.412-0.242,0.617-0.365c0.215-0.128,0.433-0.249,0.642-0.389c0.229-0.153,0.444-0.323,0.663-0.488
		c0.172-0.129,0.349-0.248,0.516-0.385c0.384-0.314,0.753-0.646,1.104-0.998l29.997-29.997c5.858-5.857,5.858-15.355,0-21.213
		c-5.857-5.857-15.355-5.857-21.213,0L180,113.787V30c0-8.284-6.716-15-15-15s-15,6.716-15,15v83.787l-4.394-4.394
		c-5.857-5.857-15.355-5.857-21.213,0c-5.858,5.857-5.858,15.355,0,21.213L154.391,160.604z"/>
</g>
<g>
</g>
<g>
</g>
<g>
</g>
<g>
</g>
<g>
</g>
<g>
</g>
<g>
</g>
<g>
</g>
<g>
</g>
<g>
</g>
<g>
</g>
<g>
</g>
<g>
</g>
<g>
</g>
<g>
</g>
</svg>
