<?xml version="1.0" encoding="iso-8859-1"?>
<!-- Generator: Adobe Illustrator 19.0.0, SVG Export Plug-In . SVG Version: 6.00 Build 0)  -->
<svg version="1.1" id="Layer_1" xmlns="http://www.w3.org/2000/svg" xmlns:xlink="http://www.w3.org/1999/xlink" x="0px" y="0px"
	 viewBox="0 0 330 330" style="enable-background:new 0 0 330 330;" xml:space="preserve">
<g id="XMLID_440_">
	<path id="XMLID_441_" d="M245,0c-8.284,0-15,6.716-15,15v14.926H85c-8.284,0-15,6.716-15,15V315c0,8.284,6.716,15,15,15h160
		c8.284,0,15-6.716,15-15V44.926V15C260,6.716,253.284,0,245,0z M100,119.926h130v60H100V119.926z M230,59.926v30H100v-30H230z
		 M100,300v-90.074h130V300H100z"/>
	<path id="XMLID_447_" d="M185,240h-40c-8.284,0-15,6.716-15,15c0,8.284,6.716,15,15,15h40c8.284,0,15-6.716,15-15
		C200,246.716,193.284,240,185,240z"/>
</g>
<g>
</g>
<g>
</g>
<g>
</g>
<g>
</g>
<g>
</g>
<g>
</g>
<g>
</g>
<g>
</g>
<g>
</g>
<g>
</g>
<g>
</g>
<g>
</g>
<g>
</g>
<g>
</g>
<g>
</g>
</svg>
