<?xml version="1.0" encoding="iso-8859-1"?>
<!-- Generator: Adobe Illustrator 19.0.0, SVG Export Plug-In . SVG Version: 6.00 Build 0)  -->
<svg version="1.1" id="Layer_1" xmlns="http://www.w3.org/2000/svg" xmlns:xlink="http://www.w3.org/1999/xlink" x="0px" y="0px"
	 viewBox="0 0 350 350" style="enable-background:new 0 0 350 350;" xml:space="preserve">
<g id="XMLID_225_">
	<path id="XMLID_226_" d="M43.323,117.484c-6.892-4.597-16.206-2.737-20.802,4.156l-20,29.986c-3.36,5.038-3.361,11.601-0.004,16.64
		l14.456,21.697L2.521,211.629c-3.36,5.038-3.361,11.603-0.003,16.642l20,30.01c2.89,4.337,7.647,6.683,12.496,6.683
		c2.858,0,5.749-0.816,8.305-2.52c6.894-4.594,8.758-13.907,4.163-20.8l-14.454-21.688l14.451-21.666
		c3.36-5.038,3.361-11.601,0.004-16.64l-14.456-21.697l14.452-21.667C52.076,131.394,50.215,122.081,43.323,117.484z"/>
	<path id="XMLID_227_" d="M347.483,211.66l-14.456-21.697l14.451-21.667c3.36-5.038,3.362-11.602,0.004-16.642l-20-30.01
		c-4.595-6.894-13.908-8.757-20.801-4.163c-6.894,4.594-8.758,13.907-4.164,20.801l14.454,21.688l-14.45,21.666
		c-3.36,5.038-3.362,11.601-0.005,16.64l14.456,21.697l-14.451,21.667c-4.598,6.892-2.736,16.206,4.155,20.802
		c2.559,1.706,5.449,2.523,8.31,2.523c4.846,0,9.602-2.344,12.492-6.678l20-29.986C350.839,223.262,350.841,216.699,347.483,211.66z
		"/>
	<path id="XMLID_228_" d="M255,10c-8.284,0-15,6.716-15,15v14.926H95c-8.284,0-15,6.716-15,15V325c0,8.284,6.716,15,15,15h160
		c8.284,0,15-6.716,15-15V54.926V25C270,16.716,263.284,10,255,10z M110,129.926h130v60H110V129.926z M240,69.926v30H110v-30H240z
		 M110,310v-90.074h130V310H110z"/>
	<path id="XMLID_233_" d="M195,250h-40c-8.284,0-15,6.716-15,15s6.716,15,15,15h40c8.284,0,15-6.716,15-15S203.284,250,195,250z"/>
</g>
<g>
</g>
<g>
</g>
<g>
</g>
<g>
</g>
<g>
</g>
<g>
</g>
<g>
</g>
<g>
</g>
<g>
</g>
<g>
</g>
<g>
</g>
<g>
</g>
<g>
</g>
<g>
</g>
<g>
</g>
</svg>
