<?xml version="1.0" encoding="iso-8859-1"?>
<!-- Generator: Adobe Illustrator 19.0.0, SVG Export Plug-In . SVG Version: 6.00 Build 0)  -->
<svg version="1.1" id="Layer_1" xmlns="http://www.w3.org/2000/svg" xmlns:xlink="http://www.w3.org/1999/xlink" x="0px" y="0px"
	 viewBox="0 0 370.001 370.001" style="enable-background:new 0 0 370.001 370.001;" xml:space="preserve">
<g id="XMLID_31_">
	<path id="XMLID_89_" d="M175.001,34.964H15c-8.284,0-15,6.716-15,15v270.074c0,8.284,6.716,15,15,15h160.001
		c8.284,0,15-6.716,15-15V49.964C190.001,41.679,183.285,34.964,175.001,34.964z M30,124.964h130.001v120H30V124.964z
		 M160.001,64.964v30H30v-30H160.001z M30,305.038v-30.074h130.001v30.074H30z"/>
	<path id="XMLID_102_" d="M365.611,174.39c-2.79-2.79-6.66-4.39-10.61-4.39c-3.95,0-7.81,1.6-10.6,4.39
		c-2.8,2.79-4.4,6.66-4.4,10.61c0,3.95,1.6,7.81,4.4,10.61c2.79,2.79,6.65,4.39,10.6,4.39c3.95,0,7.82-1.6,10.61-4.39
		c2.79-2.8,4.39-6.66,4.39-10.61C370.001,181.051,368.401,177.191,365.611,174.39z"/>
	<path id="XMLID_103_" d="M295.001,170.001c-3.95,0-7.81,1.6-10.61,4.39c-2.79,2.8-4.39,6.66-4.39,10.61c0,3.95,1.6,7.82,4.39,10.61
		c2.8,2.79,6.66,4.39,10.61,4.39c3.95,0,7.81-1.6,10.61-4.39c2.79-2.79,4.39-6.66,4.39-10.61c0-3.95-1.6-7.81-4.39-10.61
		C302.821,171.6,298.951,170.001,295.001,170.001z"/>
	<path id="XMLID_104_" d="M235.001,170.001c-3.95,0-7.81,1.6-10.6,4.39c-2.8,2.79-4.4,6.66-4.4,10.61c0,3.95,1.6,7.82,4.4,10.61
		c2.79,2.79,6.65,4.39,10.6,4.39c3.95,0,7.82-1.6,10.61-4.39c2.79-2.8,4.39-6.66,4.39-10.61c0-3.95-1.6-7.81-4.39-10.61
		C242.821,171.6,238.951,170.001,235.001,170.001z"/>
</g>
<g>
</g>
<g>
</g>
<g>
</g>
<g>
</g>
<g>
</g>
<g>
</g>
<g>
</g>
<g>
</g>
<g>
</g>
<g>
</g>
<g>
</g>
<g>
</g>
<g>
</g>
<g>
</g>
<g>
</g>
</svg>
