<?xml version="1.0" encoding="iso-8859-1"?>
<!-- Generator: Adobe Illustrator 19.0.0, SVG Export Plug-In . SVG Version: 6.00 Build 0)  -->
<svg version="1.1" id="Layer_1" xmlns="http://www.w3.org/2000/svg" xmlns:xlink="http://www.w3.org/1999/xlink" x="0px" y="0px"
	 viewBox="0 0 350 350" style="enable-background:new 0 0 350 350;" xml:space="preserve">
<g id="XMLID_23_">
	<path id="XMLID_24_" d="M43.323,102.521c-6.892-4.596-16.206-2.737-20.802,4.156l-20,29.986c-3.36,5.038-3.361,11.601-0.004,16.64
		l14.456,21.697L2.521,196.667c-3.36,5.038-3.361,11.602-0.003,16.642l20,30.01c2.891,4.337,7.647,6.683,12.496,6.683
		c2.858,0,5.749-0.816,8.305-2.52c6.894-4.594,8.757-13.907,4.163-20.801l-14.454-21.688l14.451-21.666
		c3.36-5.038,3.361-11.601,0.004-16.64l-14.456-21.697l14.452-21.668C52.076,116.431,50.215,107.118,43.323,102.521z"/>
	<path id="XMLID_25_" d="M347.483,196.697L333.027,175l14.451-21.666c3.36-5.038,3.362-11.603,0.004-16.642l-20-30.01
		c-4.595-6.894-13.908-8.756-20.801-4.163c-6.894,4.594-8.758,13.907-4.164,20.801l14.454,21.688l-14.45,21.666
		c-3.36,5.038-3.362,11.601-0.005,16.64l14.456,21.697l-14.451,21.667c-4.598,6.892-2.736,16.206,4.155,20.802
		c2.559,1.706,5.449,2.522,8.31,2.522c4.846,0,9.602-2.344,12.492-6.678l20-29.986C350.839,208.299,350.841,201.736,347.483,196.697
		z"/>
	<path id="XMLID_26_" d="M255,24.963H95c-8.284,0-15,6.716-15,15v270.074c0,8.284,6.716,15,15,15h160c8.284,0,15-6.716,15-15V39.963
		C270,31.679,263.284,24.963,255,24.963z M110,114.963h130v120H110V114.963z M240,54.963v30H110v-30H240z M110,295.037v-30.074h130
		v30.074H110z"/>
</g>
<g>
</g>
<g>
</g>
<g>
</g>
<g>
</g>
<g>
</g>
<g>
</g>
<g>
</g>
<g>
</g>
<g>
</g>
<g>
</g>
<g>
</g>
<g>
</g>
<g>
</g>
<g>
</g>
<g>
</g>
</svg>
