<?xml version="1.0" encoding="iso-8859-1"?>
<!-- Generator: Adobe Illustrator 19.0.0, SVG Export Plug-In . SVG Version: 6.00 Build 0)  -->
<svg version="1.1" id="Layer_1" xmlns="http://www.w3.org/2000/svg" xmlns:xlink="http://www.w3.org/1999/xlink" x="0px" y="0px"
	 viewBox="0 0 330 330" style="enable-background:new 0 0 330 330;" xml:space="preserve">
<g id="XMLID_337_">
	<path id="XMLID_338_" d="M175,0c-8.284,0-15,6.716-15,15v14.926H15c-8.284,0-15,6.716-15,15V315c0,8.284,6.716,15,15,15h160
		c8.284,0,15-6.716,15-15V44.926V15C190,6.716,183.284,0,175,0z M30,119.926h130v60H30V119.926z M160,59.926v30H30v-30H160z M30,300
		v-90.074h130V300H30z"/>
	<path id="XMLID_351_" d="M115,240H75c-8.284,0-15,6.716-15,15c0,8.284,6.716,15,15,15h40c8.284,0,15-6.716,15-15
		C130,246.716,123.284,240,115,240z"/>
	<path id="XMLID_352_" d="M283.095,51.764c-5.857-5.858-15.355-5.858-21.213,0c-5.858,5.858-5.858,15.355,0,21.213
		c50.742,50.743,50.743,133.305,0.003,184.046c-5.858,5.858-5.858,15.355,0,21.213c2.929,2.929,6.768,4.394,10.606,4.394
		s7.678-1.464,10.606-4.394c30.246-30.246,46.903-70.46,46.902-113.235C330,122.226,313.342,82.011,283.095,51.764z"/>
	<path id="XMLID_439_" d="M242.044,92.816c-5.857-5.858-15.355-5.858-21.213,0c-5.858,5.858-5.858,15.355,0,21.213
		c13.615,13.615,21.113,31.717,21.113,50.971c0,19.254-7.498,37.355-21.113,50.97c-5.858,5.858-5.858,15.355,0,21.213
		c2.929,2.929,6.768,4.394,10.606,4.394c3.838,0,7.678-1.465,10.606-4.393c19.281-19.281,29.9-44.916,29.9-72.184
		C271.944,137.732,261.325,112.097,242.044,92.816z"/>
</g>
<g>
</g>
<g>
</g>
<g>
</g>
<g>
</g>
<g>
</g>
<g>
</g>
<g>
</g>
<g>
</g>
<g>
</g>
<g>
</g>
<g>
</g>
<g>
</g>
<g>
</g>
<g>
</g>
<g>
</g>
</svg>
