<?xml version="1.0" encoding="iso-8859-1"?>
<!-- Generator: Adobe Illustrator 19.0.0, SVG Export Plug-In . SVG Version: 6.00 Build 0)  -->
<svg version="1.1" id="Layer_1" xmlns="http://www.w3.org/2000/svg" xmlns:xlink="http://www.w3.org/1999/xlink" x="0px" y="0px"
	 viewBox="0 0 329.999 329.999" style="enable-background:new 0 0 329.999 329.999;" xml:space="preserve">
<path id="XMLID_3_" d="M4.393,4.394c5.858-5.858,15.356-5.858,21.213,0L70,48.787V29.962c0-8.284,6.716-15,15-15h160
	c8.284,0,15,6.716,15,15v208.824l65.607,65.607c5.858,5.858,5.858,15.355,0,21.213c-2.929,2.929-6.767,4.393-10.607,4.393
	c-3.838,0-7.678-1.465-10.606-4.393l-44.394-44.394v18.824c0,8.284-6.716,15-15,15H85c-8.284,0-15-6.716-15-15V91.213L4.393,25.606
	C-1.464,19.749-1.464,10.252,4.393,4.394z M100,224.962h103.75L100,121.212V224.962z M229.999,104.962H126.175l103.825,103.825
	V104.962z M100,44.962v30h130v-30H100z M229.999,285.036v-30.074H100v30.074H229.999z"/>
<g>
</g>
<g>
</g>
<g>
</g>
<g>
</g>
<g>
</g>
<g>
</g>
<g>
</g>
<g>
</g>
<g>
</g>
<g>
</g>
<g>
</g>
<g>
</g>
<g>
</g>
<g>
</g>
<g>
</g>
</svg>
