<?xml version="1.0" encoding="iso-8859-1"?>
<!-- Generator: Adobe Illustrator 19.0.0, SVG Export Plug-In . SVG Version: 6.00 Build 0)  -->
<svg version="1.1" id="Layer_1" xmlns="http://www.w3.org/2000/svg" xmlns:xlink="http://www.w3.org/1999/xlink" x="0px" y="0px"
	 viewBox="0 0 330 330" style="enable-background:new 0 0 330 330;" xml:space="preserve">
<g id="XMLID_235_">
	<path id="XMLID_236_" d="M185,240h-40c-8.284,0-15,6.716-15,15c0,8.284,6.716,15,15,15h40c8.284,0,15-6.716,15-15
		C200,246.716,193.284,240,185,240z"/>
	<path id="XMLID_237_" d="M325.606,304.393L260,238.787V44.926V15c0-8.284-6.716-15-15-15c-8.284,0-15,6.716-15,15v14.926H85
		c-8.284,0-15,6.716-15,15v3.862L25.606,4.394c-5.857-5.858-15.355-5.858-21.213,0c-5.858,5.858-5.858,15.355,0,21.213L70,91.213
		V315c0,8.284,6.716,15,15,15h160c8.284,0,15-6.716,15-15v-33.788l44.394,44.394C307.322,328.535,311.161,330,315,330
		c3.839,0,7.678-1.464,10.606-4.394C331.464,319.748,331.464,310.251,325.606,304.393z M100,121.213l58.713,58.713H100V121.213z
		 M141.139,119.926H230v60h-28.861L141.139,119.926z M100,59.926h130v30H111.139L100,78.787V59.926z M230,300H100v-90.074h88.713
		L230,251.213V300z"/>
</g>
<g>
</g>
<g>
</g>
<g>
</g>
<g>
</g>
<g>
</g>
<g>
</g>
<g>
</g>
<g>
</g>
<g>
</g>
<g>
</g>
<g>
</g>
<g>
</g>
<g>
</g>
<g>
</g>
<g>
</g>
</svg>
