<?xml version="1.0" encoding="iso-8859-1"?>
<!-- Generator: Adobe Illustrator 19.0.0, SVG Export Plug-In . SVG Version: 6.00 Build 0)  -->
<svg version="1.1" id="Layer_1" xmlns="http://www.w3.org/2000/svg" xmlns:xlink="http://www.w3.org/1999/xlink" x="0px" y="0px"
	 viewBox="0 0 370.001 370.001" style="enable-background:new 0 0 370.001 370.001;" xml:space="preserve">
<g id="XMLID_243_">
	<path id="XMLID_244_" d="M175.001,20.001c-8.284,0-15,6.716-15,15v14.926H15c-8.284,0-15,6.716-15,15v270.074
		c0,8.284,6.716,15,15,15h160.001c8.284,0,15-6.716,15-15V64.927V35.001C190.001,26.717,183.285,20.001,175.001,20.001z M30,139.927
		h130.001v60H30V139.927z M160.001,79.927v30H30v-30H160.001z M30,320.001v-90.074h130.001v90.074H30z"/>
	<path id="XMLID_311_" d="M115.001,260.001h-40c-8.284,0-15,6.716-15,15c0,8.284,6.716,15,15,15h40c8.284,0,15-6.716,15-15
		C130.001,266.717,123.285,260.001,115.001,260.001z"/>
	<path id="XMLID_312_" d="M365.611,184.39c-2.79-2.79-6.66-4.39-10.61-4.39c-3.95,0-7.81,1.6-10.6,4.39c-2.8,2.8-4.4,6.66-4.4,10.61
		c0,3.95,1.6,7.81,4.4,10.61c2.79,2.79,6.65,4.39,10.6,4.39c3.95,0,7.81-1.6,10.61-4.39c2.79-2.8,4.39-6.66,4.39-10.61
		C370.001,191.051,368.401,187.191,365.611,184.39z"/>
	<path id="XMLID_333_" d="M295.001,180.001c-3.95,0-7.81,1.6-10.61,4.39c-2.79,2.8-4.39,6.66-4.39,10.61c0,3.95,1.6,7.82,4.39,10.61
		c2.8,2.79,6.671,4.39,10.61,4.39c3.95,0,7.81-1.6,10.61-4.39c2.79-2.79,4.39-6.66,4.39-10.61c0-3.95-1.6-7.81-4.39-10.61
		C302.821,181.601,298.951,180.001,295.001,180.001z"/>
	<path id="XMLID_334_" d="M235.001,180.001c-3.95,0-7.81,1.6-10.6,4.39c-2.8,2.79-4.4,6.66-4.4,10.61c0,3.95,1.6,7.82,4.4,10.61
		c2.79,2.79,6.65,4.39,10.6,4.39c3.95,0,7.82-1.6,10.61-4.39c2.79-2.8,4.39-6.66,4.39-10.61c0-3.95-1.6-7.81-4.39-10.61
		C242.821,181.601,238.951,180.001,235.001,180.001z"/>
</g>
<g>
</g>
<g>
</g>
<g>
</g>
<g>
</g>
<g>
</g>
<g>
</g>
<g>
</g>
<g>
</g>
<g>
</g>
<g>
</g>
<g>
</g>
<g>
</g>
<g>
</g>
<g>
</g>
<g>
</g>
</svg>
