<?xml version="1.0" encoding="iso-8859-1"?>
<!-- Generator: Adobe Illustrator 19.0.0, SVG Export Plug-In . SVG Version: 6.00 Build 0)  -->
<svg version="1.1" id="Layer_1" xmlns="http://www.w3.org/2000/svg" xmlns:xlink="http://www.w3.org/1999/xlink" x="0px" y="0px"
	 viewBox="0 0 330 330" style="enable-background:new 0 0 330 330;" xml:space="preserve">
<g id="XMLID_8_">
	<path id="XMLID_9_" d="M315,175H215c-8.284,0-15,6.716-15,15v35h-70v-35c0-8.284-6.716-15-15-15H15c-8.284,0-15,6.716-15,15v110
		c0,8.284,6.716,15,15,15h300c8.284,0,15-6.716,15-15V190C330,181.716,323.284,175,315,175z M300,285H30v-80h70v35
		c0,8.284,6.716,15,15,15h100c8.284,0,15-6.716,15-15v-35h70V285z"/>
	<path id="XMLID_12_" d="M135.001,75.001c3.839,0,7.678-1.465,10.607-4.394L150,66.215l0,83.786c0,8.284,6.716,15,15,15
		c8.284,0,15-6.716,15-15l0-83.788l4.394,4.394c5.858,5.857,15.356,5.857,21.213,0c5.858-5.857,5.858-15.355,0-21.213L175.61,19.396
		c-0.347-0.348-0.71-0.676-1.09-0.988c-0.092-0.076-0.192-0.141-0.287-0.214c-0.292-0.229-0.585-0.454-0.893-0.661
		c-0.088-0.059-0.182-0.107-0.27-0.164c-0.324-0.208-0.651-0.411-0.991-0.594c-0.064-0.034-0.133-0.062-0.198-0.095
		c-0.37-0.191-0.744-0.374-1.13-0.534c-0.044-0.019-0.091-0.032-0.136-0.05c-0.407-0.165-0.819-0.316-1.243-0.445
		c-0.05-0.016-0.102-0.024-0.153-0.039c-0.416-0.122-0.835-0.232-1.265-0.318c-0.124-0.024-0.252-0.036-0.377-0.058
		c-0.357-0.062-0.713-0.125-1.078-0.16c-0.496-0.051-0.995-0.076-1.497-0.076c-0.503,0-1.003,0.025-1.498,0.076
		c-0.359,0.035-0.71,0.098-1.061,0.158c-0.131,0.022-0.264,0.033-0.394,0.059c-0.422,0.085-0.833,0.193-1.242,0.312
		c-0.059,0.017-0.119,0.028-0.178,0.047c-0.414,0.125-0.816,0.274-1.213,0.434c-0.055,0.023-0.112,0.039-0.166,0.061
		c-0.375,0.156-0.737,0.334-1.096,0.519c-0.077,0.04-0.156,0.071-0.232,0.112c-0.326,0.175-0.638,0.369-0.948,0.567
		c-0.104,0.066-0.212,0.122-0.314,0.191c-0.283,0.189-0.551,0.398-0.82,0.607c-0.119,0.092-0.244,0.174-0.36,0.27
		c-0.334,0.274-0.651,0.567-0.96,0.869c-0.04,0.039-0.085,0.072-0.124,0.112l-30,30.001c-5.857,5.858-5.857,15.355,0,21.213
		C127.324,73.537,131.162,75.001,135.001,75.001z"/>
</g>
<g>
</g>
<g>
</g>
<g>
</g>
<g>
</g>
<g>
</g>
<g>
</g>
<g>
</g>
<g>
</g>
<g>
</g>
<g>
</g>
<g>
</g>
<g>
</g>
<g>
</g>
<g>
</g>
<g>
</g>
</svg>
