<?xml version="1.0" encoding="iso-8859-1"?>
<!-- Generator: Adobe Illustrator 19.0.0, SVG Export Plug-In . SVG Version: 6.00 Build 0)  -->
<svg version="1.1" id="Layer_1" xmlns="http://www.w3.org/2000/svg" xmlns:xlink="http://www.w3.org/1999/xlink" x="0px" y="0px"
	 viewBox="0 0 330 330" style="enable-background:new 0 0 330 330;" xml:space="preserve">
<g id="XMLID_9_">
	<path id="XMLID_10_" d="M305,0H105C69.159,0,40,29.159,40,65v15H25c-8.284,0-15,6.716-15,15s6.716,15,15,15h15v40H25
		c-8.284,0-15,6.716-15,15s6.716,15,15,15h15v40H25c-8.284,0-15,6.716-15,15s6.716,15,15,15h15v15c0,35.841,29.159,65,65,65h200
		c8.284,0,15-6.716,15-15V15C320,6.716,313.284,0,305,0z M290,300H105c-19.299,0-35-15.701-35-35V65c0-19.299,15.701-35,35-35h185
		V300z"/>
	<path id="XMLID_13_" d="M180,239c4.971,0,9-4.029,9-9s-4.029-9-9-9c-30.878,0-56-25.123-56-56.002C124,134.121,149.122,109,180,109
		s56,25.121,56,55.998v16.253c0,3.997-3.253,7.25-7.252,7.25c-3.998,0-7.25-3.253-7.25-7.25v-16.253
		c0-22.883-18.616-41.499-41.498-41.499c-22.883,0-41.5,18.616-41.5,41.499c0,22.885,18.617,41.503,41.5,41.503
		c10.778,0,20.607-4.133,27.993-10.895c4.563,6.577,12.163,10.895,20.755,10.895c13.924,0,25.252-11.327,25.252-25.25v-16.253
		C254,124.195,220.804,91,180,91s-74,33.195-74,73.998C106,205.803,139.196,239,180,239z M180,188.501
		c-12.958,0-23.5-10.544-23.5-23.503c0-12.958,10.542-23.499,23.5-23.499c12.957,0,23.498,10.542,23.498,23.499
		C203.498,177.958,192.957,188.501,180,188.501z"/>
</g>
<g>
</g>
<g>
</g>
<g>
</g>
<g>
</g>
<g>
</g>
<g>
</g>
<g>
</g>
<g>
</g>
<g>
</g>
<g>
</g>
<g>
</g>
<g>
</g>
<g>
</g>
<g>
</g>
<g>
</g>
</svg>
