<?xml version="1.0" encoding="iso-8859-1"?>
<!-- Generator: Adobe Illustrator 19.0.0, SVG Export Plug-In . SVG Version: 6.00 Build 0)  -->
<svg version="1.1" id="Layer_1" xmlns="http://www.w3.org/2000/svg" xmlns:xlink="http://www.w3.org/1999/xlink" x="0px" y="0px"
	 viewBox="0 0 330 330" style="enable-background:new 0 0 330 330;" xml:space="preserve">
<path id="XMLID_2_" d="M65.735,148.329c5.856-5.858,15.355-5.857,21.213-0.001l30.446,30.445l20.083-20.083L4.394,25.607
	c-5.858-5.858-5.858-15.355,0-21.213c5.856-5.857,15.354-5.858,21.213,0L158.69,137.477l20.059-20.058l-30.446-30.445
	c-2.814-2.813-4.394-6.628-4.394-10.607c0-3.978,1.58-7.794,4.394-10.607l61.366-61.363c5.858-5.858,15.355-5.858,21.213,0
	l40.988,40.987c18.738,18.738,23.154,48.49,12.433,83.776c-8.548,28.132-26.083,57.527-49.939,83.99l91.243,91.243
	c5.858,5.858,5.858,15.355,0,21.213C322.678,328.535,318.84,330,315,330c-3.838,0-7.678-1.465-10.606-4.393l-91.253-91.254
	c-38.463,34.593-83.172,55.644-119.342,55.644c-19.814,0-36.556-6.269-48.407-18.12c-0.592-0.591-40.996-40.996-40.996-40.996
	c-2.813-2.813-4.393-6.628-4.393-10.607c0-3.978,1.58-7.793,4.393-10.606L65.735,148.329z M255.598,120.439
	c7.242-23.835,5.441-43.459-4.941-53.841l-30.382-30.381l-40.153,40.15l30.446,30.445c2.814,2.813,4.394,6.628,4.394,10.607
	s-1.58,7.794-4.394,10.606l-30.665,30.664l33.218,33.217C233.527,169.016,248.424,144.048,255.598,120.439z M66.597,250.655
	c6.198,6.198,15.351,9.341,27.202,9.341c28.261,0,65.619-18.083,98.092-46.893l-33.201-33.2L128,210.592
	c-5.857,5.858-15.355,5.857-21.213,0l-30.446-30.445l-40.126,40.126C48.227,232.285,66.198,250.256,66.597,250.655z"/>
<g>
</g>
<g>
</g>
<g>
</g>
<g>
</g>
<g>
</g>
<g>
</g>
<g>
</g>
<g>
</g>
<g>
</g>
<g>
</g>
<g>
</g>
<g>
</g>
<g>
</g>
<g>
</g>
<g>
</g>
</svg>
