<?xml version="1.0" encoding="iso-8859-1"?>
<!-- Generator: Adobe Illustrator 19.0.0, SVG Export Plug-In . SVG Version: 6.00 Build 0)  -->
<svg version="1.1" id="Layer_1" xmlns="http://www.w3.org/2000/svg" xmlns:xlink="http://www.w3.org/1999/xlink" x="0px" y="0px"
	 viewBox="0 0 330 330" style="enable-background:new 0 0 330 330;" xml:space="preserve">
<path id="XMLID_463_" d="M315,70h-75V15c0-8.284-6.716-15-15-15H15C6.716,0,0,6.716,0,15v176.333c0,8.284,6.716,15,15,15h21V245
	c0,5.593,3.112,10.722,8.073,13.305C46.252,259.44,48.63,260,50.999,260c3.023,0,6.034-0.913,8.603-2.711L90,236.01v25.324
	c0,8.284,6.716,15,15,15h92.605l72.793,50.955c2.569,1.798,5.579,2.711,8.603,2.711c2.369,0,4.747-0.56,6.926-1.695
	C290.888,325.722,294,320.593,294,315v-38.667h21c8.284,0,15-6.716,15-15V85C330,76.716,323.284,70,315,70z M51,176.333H30V30h180
	v54.98c0,0.007-0.001,0.013-0.001,0.02S210,85.013,210,85.02v91.314h-82.334c-3.077,0-6.081,0.947-8.602,2.711L66,216.19v-24.856
	C66,183.049,59.284,176.333,51,176.333z M300,246.333h-21c-8.284,0-15,6.716-15,15v24.856l-53.064-37.145
	c-2.521-1.765-5.524-2.711-8.602-2.711H120V215.01l12.395-8.676H225c8.284,0,15-6.716,15-15V100h60V246.333z"/>
<g>
</g>
<g>
</g>
<g>
</g>
<g>
</g>
<g>
</g>
<g>
</g>
<g>
</g>
<g>
</g>
<g>
</g>
<g>
</g>
<g>
</g>
<g>
</g>
<g>
</g>
<g>
</g>
<g>
</g>
</svg>
