<?xml version="1.0" encoding="iso-8859-1"?>
<!-- Generator: Adobe Illustrator 19.0.0, SVG Export Plug-In . SVG Version: 6.00 Build 0)  -->
<svg version="1.1" id="Layer_1" xmlns="http://www.w3.org/2000/svg" xmlns:xlink="http://www.w3.org/1999/xlink" x="0px" y="0px"
	 viewBox="0 0 330 330" style="enable-background:new 0 0 330 330;" xml:space="preserve">
<g id="XMLID_503_">
	<path id="XMLID_504_" d="M165,0C74.019,0,0,74.019,0,165c0,23.39,4.772,45.921,14.195,67.05L0.222,312.431
		c-0.836,4.809,0.72,9.724,4.172,13.176C7.231,328.444,11.056,330.001,15,330c0.854,0,1.714-0.073,2.57-0.222l80.379-13.974
		C119.079,325.227,141.611,330,165,330c90.981,0,165-74.019,165-165S255.982,0,165,0z M165,300
		c-20.499,0-40.178-4.472-58.493-13.292c-2.04-0.982-4.266-1.485-6.508-1.485c-0.857,0-1.717,0.074-2.569,0.222l-64.001,11.127
		l11.127-64.001c0.536-3.083,0.094-6.258-1.264-9.078C34.472,205.179,30,185.499,30,165c0-74.439,60.56-135,135-135
		s135,60.56,135,135S239.44,300,165,300z"/>
	<path id="XMLID_507_" d="M90,150c-3.95,0-7.82,1.6-10.61,4.39C76.6,157.18,75,161.05,75,165c0,3.95,1.6,7.82,4.39,10.61
		C82.18,178.4,86.05,180,90,180c3.95,0,7.81-1.6,10.61-4.39c2.79-2.8,4.39-6.66,4.39-10.61c0-3.95-1.6-7.81-4.39-10.61
		C97.81,151.6,93.95,150,90,150z"/>
	<path id="XMLID_508_" d="M165,150c-3.95,0-7.82,1.6-10.61,4.39c-2.79,2.8-4.39,6.66-4.39,10.61c0,3.95,1.6,7.81,4.39,10.61
		c2.8,2.79,6.66,4.39,10.61,4.39c3.95,0,7.81-1.6,10.61-4.39c2.79-2.8,4.39-6.66,4.39-10.61c0-3.95-1.6-7.81-4.39-10.61
		C172.81,151.6,168.95,150,165,150z"/>
	<path id="XMLID_509_" d="M240,150c-3.95,0-7.81,1.6-10.61,4.39c-2.79,2.8-4.39,6.66-4.39,10.61c0,3.95,1.6,7.81,4.39,10.61
		c2.8,2.79,6.66,4.39,10.61,4.39c3.95,0,7.81-1.6,10.61-4.39c2.79-2.8,4.39-6.66,4.39-10.61c0-3.95-1.6-7.81-4.39-10.61
		C247.81,151.6,243.95,150,240,150z"/>
</g>
<g>
</g>
<g>
</g>
<g>
</g>
<g>
</g>
<g>
</g>
<g>
</g>
<g>
</g>
<g>
</g>
<g>
</g>
<g>
</g>
<g>
</g>
<g>
</g>
<g>
</g>
<g>
</g>
<g>
</g>
</svg>
