<?xml version="1.0" encoding="iso-8859-1"?>
<!-- Generator: Adobe Illustrator 19.0.0, SVG Export Plug-In . SVG Version: 6.00 Build 0)  -->
<svg version="1.1" id="Layer_1" xmlns="http://www.w3.org/2000/svg" xmlns:xlink="http://www.w3.org/1999/xlink" x="0px" y="0px"
	 viewBox="0 0 330 330" style="enable-background:new 0 0 330 330;" xml:space="preserve">
<g id="XMLID_496_">
	<path id="XMLID_497_" d="M165,0C74.019,0,0,74.019,0,165c0,23.391,4.773,45.921,14.196,67.051l-13.974,80.38
		c-0.836,4.809,0.72,9.725,4.172,13.176C7.231,328.444,11.056,330.001,15,330c0.854,0,1.714-0.073,2.57-0.222l80.38-13.974
		C119.079,325.227,141.61,330,165,330c90.981,0,165-74.019,165-165S255.982,0,165,0z M165,300c-20.498,0-40.178-4.472-58.492-13.292
		c-2.04-0.982-4.266-1.485-6.508-1.485c-0.857,0-1.717,0.073-2.569,0.222l-64.002,11.126l11.127-64.002
		c0.536-3.084,0.094-6.258-1.264-9.078C34.472,205.179,30,185.499,30,165c0-74.44,60.56-135,135-135s135,60.561,135,135
		S239.44,300,165,300z"/>
	<path id="XMLID_501_" d="M245,185H85c-8.284,0-15,6.716-15,15c0,8.284,6.716,15,15,15h160c8.284,0,15-6.716,15-15
		C260,191.716,253.284,185,245,185z"/>
	<path id="XMLID_502_" d="M245,115H85c-8.284,0-15,6.716-15,15s6.716,15,15,15h160c8.284,0,15-6.716,15-15S253.284,115,245,115z"/>
</g>
<g>
</g>
<g>
</g>
<g>
</g>
<g>
</g>
<g>
</g>
<g>
</g>
<g>
</g>
<g>
</g>
<g>
</g>
<g>
</g>
<g>
</g>
<g>
</g>
<g>
</g>
<g>
</g>
<g>
</g>
</svg>
