<?xml version="1.0" encoding="iso-8859-1"?>
<!-- Generator: Adobe Illustrator 19.0.0, SVG Export Plug-In . SVG Version: 6.00 Build 0)  -->
<svg version="1.1" id="Layer_1" xmlns="http://www.w3.org/2000/svg" xmlns:xlink="http://www.w3.org/1999/xlink" x="0px" y="0px"
	 viewBox="0 0 510.223 510.223" style="enable-background:new 0 0 510.223 510.223;" xml:space="preserve">
<g>
	<g>
		
			<rect x="421.309" y="13.798" transform="matrix(0.7071 -0.7071 0.7071 0.7071 67.3946 338.7809)" width="42.667" height="148.481"/>
	</g>
</g>
<g>
	<g>
		
			<rect x="-6.659" y="66.726" transform="matrix(0.7071 -0.7071 0.7071 0.7071 -42.4733 73.5788)" width="148.481" height="42.667"/>
	</g>
</g>
<g>
	<g>
		<polygon points="277.222,255.099 277.222,169.766 234.555,169.766 234.555,297.766 362.555,297.766 362.555,255.099 		"/>
	</g>
</g>
<g>
	<g>
		<path d="M255.889,63.099c-117.821,0-213.333,95.513-213.333,213.333s95.513,213.333,213.333,213.333
			s213.333-95.513,213.333-213.333S373.709,63.099,255.889,63.099z M255.889,451.152c-96.495,0-174.72-78.225-174.72-174.72
			s78.225-174.72,174.72-174.72c96.446,0.117,174.602,78.273,174.72,174.72C430.609,372.928,352.384,451.152,255.889,451.152z"/>
	</g>
</g>
<g>
</g>
<g>
</g>
<g>
</g>
<g>
</g>
<g>
</g>
<g>
</g>
<g>
</g>
<g>
</g>
<g>
</g>
<g>
</g>
<g>
</g>
<g>
</g>
<g>
</g>
<g>
</g>
<g>
</g>
</svg>
