<?xml version="1.0" encoding="iso-8859-1"?>
<!-- Generator: Adobe Illustrator 19.0.0, SVG Export Plug-In . SVG Version: 6.00 Build 0)  -->
<svg version="1.1" id="Layer_1" xmlns="http://www.w3.org/2000/svg" xmlns:xlink="http://www.w3.org/1999/xlink" x="0px" y="0px"
	 viewBox="0 0 499.47 499.47" style="enable-background:new 0 0 499.47 499.47;" xml:space="preserve">
<g>
	<g>
		<rect x="179.457" y="456.804" width="128" height="42.667"/>
	</g>
</g>
<g>
	<g>
		<path d="M366.55,173.71c-10.301-50.802-50.693-90.093-101.76-98.987V30.137h-42.667v44.587
			c-13.782,2.459-27.051,7.218-39.253,14.08l32,26.667c9.202-3.101,18.88-4.545,28.587-4.267
			c41.111,1.797,75.994,30.751,85.333,70.827l12.16,61.44l50.133,54.4L366.55,173.71z"/>
	</g>
</g>
<g>
	<g>
		<path d="M379.563,371.47H102.23l27.307-54.4l28.587-135.04c1.633-8.377,4.585-16.442,8.747-23.893
			c2.56-4.267-26.24-31.36-30.08-25.387c-7.829,12.487-13.323,26.294-16.213,40.747L94.123,300.43L38.23,414.137h397.227
			L379.563,371.47z"/>
	</g>
</g>
<g>
	<g>
		
			<rect x="228.402" y="-82.109" transform="matrix(0.7071 -0.7071 0.7071 0.7071 -103.4417 249.734)" width="42.667" height="663.683"/>
	</g>
</g>
<g>
</g>
<g>
</g>
<g>
</g>
<g>
</g>
<g>
</g>
<g>
</g>
<g>
</g>
<g>
</g>
<g>
</g>
<g>
</g>
<g>
</g>
<g>
</g>
<g>
</g>
<g>
</g>
<g>
</g>
</svg>
