<?xml version="1.0" encoding="iso-8859-1"?>
<!-- Generator: Adobe Illustrator 19.0.0, SVG Export Plug-In . SVG Version: 6.00 Build 0)  -->
<svg version="1.1" id="Layer_1" xmlns="http://www.w3.org/2000/svg" xmlns:xlink="http://www.w3.org/1999/xlink" x="0px" y="0px"
	 viewBox="0 0 482.56 482.56" style="enable-background:new 0 0 482.56 482.56;" xml:space="preserve">
<g>
	<g>
		<polygon points="331.733,0 196.053,135.68 226.133,165.76 331.733,60.373 422.187,150.827 316.8,256.427 346.88,286.507 
			482.56,150.827 		"/>
	</g>
</g>
<g>
	<g>
		<polygon points="256.427,316.8 150.827,422.187 60.373,331.733 165.76,226.133 135.68,196.053 0,331.733 150.827,482.56 
			286.507,346.88 		"/>
	</g>
</g>
<g>
	<g>
		
			<rect x="89.715" y="53.454" transform="matrix(0.7071 -0.7071 0.7071 0.7071 -42.9846 109.8004)" width="42.667" height="106.667"/>
	</g>
</g>
<g>
	<g>
		<rect x="164.958" y="29.663" transform="matrix(0.7071 -0.7071 0.7071 0.7071 10.9608 149.7889)" width="42.667" height="64"/>
	</g>
</g>
<g>
	<g>
		<rect x="44.425" y="150.204" transform="matrix(0.7071 -0.7071 0.7071 0.7071 -109.5776 99.8647)" width="42.667" height="64"/>
	</g>
</g>
<g>
	<g>
		
			<rect x="354.259" y="318.414" transform="matrix(0.7071 -0.7071 0.7071 0.7071 -152.8566 374.4659)" width="42.667" height="106.667"/>
	</g>
</g>
<g>
	<g>
		<rect x="279.015" y="384.871" transform="matrix(0.7071 -0.7071 0.7071 0.7071 -206.8021 334.4774)" width="42.667" height="64"/>
	</g>
</g>
<g>
	<g>
		<rect x="399.762" y="264.33" transform="matrix(0.7071 -0.7071 0.7071 0.7071 -86.2011 384.5526)" width="42.667" height="64"/>
	</g>
</g>
<g>
</g>
<g>
</g>
<g>
</g>
<g>
</g>
<g>
</g>
<g>
</g>
<g>
</g>
<g>
</g>
<g>
</g>
<g>
</g>
<g>
</g>
<g>
</g>
<g>
</g>
<g>
</g>
<g>
</g>
</svg>
