<?xml version="1.0" encoding="iso-8859-1"?>
<!-- Generator: Adobe Illustrator 19.0.0, SVG Export Plug-In . SVG Version: 6.00 Build 0)  -->
<svg version="1.1" id="Layer_1" xmlns="http://www.w3.org/2000/svg" xmlns:xlink="http://www.w3.org/1999/xlink" x="0px" y="0px"
	 viewBox="0 0 384 384" style="enable-background:new 0 0 384 384;" xml:space="preserve">
<g>
	<g>
		<rect x="21.333" width="341.333" height="42.667"/>
	</g>
</g>
<g>
	<g>
		<rect x="21.333" y="341.333" width="341.333" height="42.667"/>
	</g>
</g>
<g>
	<g>
		<path d="M298.667,106.667c-47.128,0-85.333,38.205-85.333,85.333v42.667h-42.667V192c0-47.128-38.205-85.333-85.333-85.333
			S0,144.872,0,192s38.205,85.333,85.333,85.333h213.333C345.795,277.333,384,239.128,384,192S345.795,106.667,298.667,106.667z
			 M128,234.667H85.333c-23.564,0-42.667-19.103-42.667-42.667s19.102-42.667,42.667-42.667S128,168.436,128,192V234.667z
			 M298.667,234.667H256V192c0-23.564,19.103-42.667,42.667-42.667s42.667,19.103,42.667,42.667S322.231,234.667,298.667,234.667z"
			/>
	</g>
</g>
<g>
</g>
<g>
</g>
<g>
</g>
<g>
</g>
<g>
</g>
<g>
</g>
<g>
</g>
<g>
</g>
<g>
</g>
<g>
</g>
<g>
</g>
<g>
</g>
<g>
</g>
<g>
</g>
<g>
</g>
</svg>
