<?xml version="1.0" encoding="iso-8859-1"?>
<!-- Generator: Adobe Illustrator 19.0.0, SVG Export Plug-In . SVG Version: 6.00 Build 0)  -->
<svg version="1.1" id="Layer_1" xmlns="http://www.w3.org/2000/svg" xmlns:xlink="http://www.w3.org/1999/xlink" x="0px" y="0px"
	 viewBox="0 0 499.465 499.465" style="enable-background:new 0 0 499.465 499.465;" xml:space="preserve">
<g>
	<g>
		<polygon points="332.568,335.141 292.461,335.141 281.154,335.141 271.341,340.688 185.794,389.541 185.794,377.808 
			185.794,335.141 143.128,335.141 100.461,335.141 100.461,121.808 119.234,121.808 76.568,79.141 57.794,79.141 57.794,377.808 
			143.128,377.808 143.128,463.141 292.461,377.808 375.234,377.808 		"/>
	</g>
</g>
<g>
	<g>
		<polygon points="167.021,79.141 209.688,121.808 399.128,121.808 399.128,311.248 441.794,353.915 441.794,79.141 		"/>
	</g>
</g>
<g>
	<g>
		
			<rect x="228.399" y="-82.109" transform="matrix(0.7071 -0.7071 0.7071 0.7071 -103.4426 249.7321)" width="42.667" height="663.683"/>
	</g>
</g>
<g>
</g>
<g>
</g>
<g>
</g>
<g>
</g>
<g>
</g>
<g>
</g>
<g>
</g>
<g>
</g>
<g>
</g>
<g>
</g>
<g>
</g>
<g>
</g>
<g>
</g>
<g>
</g>
<g>
</g>
</svg>
