<?xml version="1.0" encoding="iso-8859-1"?>
<!-- Generator: Adobe Illustrator 19.0.0, SVG Export Plug-In . SVG Version: 6.00 Build 0)  -->
<svg version="1.1" id="Layer_1" xmlns="http://www.w3.org/2000/svg" xmlns:xlink="http://www.w3.org/1999/xlink" x="0px" y="0px"
	 viewBox="0 0 514.245 514.245" style="enable-background:new 0 0 514.245 514.245;" xml:space="preserve">
<g>
	<g>
		<path d="M396.272,191.612h-2.133c-30.085-82.711-121.523-125.372-204.234-95.288c-62.799,22.842-104.677,82.438-104.886,149.261
			c0,3.413,0,6.613,0,10.027c-47.482,0.53-85.544,39.452-85.013,86.933c0.53,47.482,39.452,85.544,86.933,85.013h309.333
			c65.155,0,117.973-52.818,117.973-117.973C514.245,244.43,461.427,191.612,396.272,191.612z M396.106,384.678
			c-0.016,0-0.032,0-0.047,0l0.213,0.213H86.939c-24.035,0-43.52-19.485-43.52-43.52c0-24.035,19.485-43.52,43.52-43.52
			c5.547,0,42.667,1.707,42.667,1.707s-1.92-43.947-1.92-53.973c-0.548-64.328,51.155-116.92,115.483-117.469
			c54.972-0.469,102.788,37.561,114.704,91.229l4.48,19.84l20.053-3.627c4.495-0.917,9.066-1.417,13.653-1.493
			c41.591-0.013,75.317,33.692,75.33,75.283C471.402,350.939,437.697,384.665,396.106,384.678z"/>
	</g>
</g>
<g>
</g>
<g>
</g>
<g>
</g>
<g>
</g>
<g>
</g>
<g>
</g>
<g>
</g>
<g>
</g>
<g>
</g>
<g>
</g>
<g>
</g>
<g>
</g>
<g>
</g>
<g>
</g>
<g>
</g>
</svg>
