<?xml version="1.0" encoding="iso-8859-1"?>
<!-- Generator: Adobe Illustrator 19.0.0, SVG Export Plug-In . SVG Version: 6.00 Build 0)  -->
<svg version="1.1" id="Layer_1" xmlns="http://www.w3.org/2000/svg" xmlns:xlink="http://www.w3.org/1999/xlink" x="0px" y="0px"
	 viewBox="0 0 513.287 513.287" style="enable-background:new 0 0 513.287 513.287;" xml:space="preserve">
<g>
	<g>
		<path d="M397.448,191.444c-0.286-0.003-0.572-0.004-0.858-0.005h-2.133c-29.549-82.653-120.507-125.703-203.16-96.154
			c-1.839,0.658-3.666,1.349-5.48,2.074l34.133,34.133c61.315-14.621,122.873,23.231,137.495,84.546
			c0.265,1.112,0.514,2.228,0.745,3.347l4.48,19.84l20.053-3.627c4.495-0.917,9.066-1.417,13.653-1.493
			c41.352-0.547,75.317,32.531,75.864,73.883c0.268,20.289-7.708,39.818-22.104,54.117l29.867,29.867
			c21.41-22.144,33.348-51.759,33.28-82.56C513.872,244.849,462.011,192.033,397.448,191.444z"/>
	</g>
</g>
<g>
	<g>
		<path d="M382.722,384.719H86.616c-24.035,0-43.52-19.485-43.52-43.52c0-24.035,19.485-43.52,43.52-43.52
			c5.547,0,42.667,1.707,42.667,1.707s-1.28-43.947-1.28-53.973c-0.071-30.654,11.966-60.096,33.493-81.92l-30.08-30.08
			c-29.559,29.775-46.127,70.044-46.08,112c0,3.413,0,6.613,0,10.027c-47.482,0.353-85.687,39.132-85.333,86.613
			c0.354,47.482,39.132,85.687,86.613,85.333h309.333c8.689-0.033,17.347-1.035,25.813-2.987L382.722,384.719z"/>
	</g>
</g>
<g>
	<g>
		
			<rect x="235.887" y="-75.198" transform="matrix(0.7071 -0.7071 0.7071 0.7071 -106.1363 257.0513)" width="42.667" height="663.683"/>
	</g>
</g>
<g>
</g>
<g>
</g>
<g>
</g>
<g>
</g>
<g>
</g>
<g>
</g>
<g>
</g>
<g>
</g>
<g>
</g>
<g>
</g>
<g>
</g>
<g>
</g>
<g>
</g>
<g>
</g>
<g>
</g>
</svg>
