<?xml version="1.0" encoding="iso-8859-1"?>
<!-- Generator: Adobe Illustrator 19.0.0, SVG Export Plug-In . SVG Version: 6.00 Build 0)  -->
<svg version="1.1" id="Layer_1" xmlns="http://www.w3.org/2000/svg" xmlns:xlink="http://www.w3.org/1999/xlink" x="0px" y="0px"
	 viewBox="0 0 514.105 514.105" style="enable-background:new 0 0 514.105 514.105;" xml:space="preserve">
<g>
	<g>
		<polygon points="327.684,374.488 289.071,413.102 278.831,434.648 278.831,225.581 236.164,225.581 236.164,433.581 
			226.351,413.528 187.311,374.488 158.298,401.581 257.498,500.781 355.844,402.648 		"/>
	</g>
</g>
<g>
	<g>
		<path d="M396.164,117.635h-2.133c-22.933-62.302-82.088-103.86-148.475-104.308c-88.01-0.594-159.838,70.271-160.431,158.281
			c0,3.413,0,6.613,0,10.027c-47.482,0.471-85.591,39.345-85.12,86.827c0.471,47.482,39.345,85.591,86.827,85.12h106.667v-42.667
			H86.831c-24.035,0-43.52-19.485-43.52-43.52c0-24.035,19.485-43.52,43.52-43.52c5.547,0,42.667,1.707,42.667,1.707
			s-1.92-43.947-1.92-53.973c-0.863-55.668,37.788-104.164,92.246-115.74c62.924-13.377,124.778,26.79,138.154,89.714l4.48,19.84
			l20.053-3.627c4.495-0.917,9.066-1.417,13.653-1.493c41.591,0,75.307,33.716,75.307,75.307c0,41.591-33.716,75.307-75.307,75.307
			h-74.667v42.667h74.667c65.129-0.018,117.922-52.811,117.94-117.94C514.123,170.486,461.319,117.653,396.164,117.635z"/>
	</g>
</g>
<g>
</g>
<g>
</g>
<g>
</g>
<g>
</g>
<g>
</g>
<g>
</g>
<g>
</g>
<g>
</g>
<g>
</g>
<g>
</g>
<g>
</g>
<g>
</g>
<g>
</g>
<g>
</g>
<g>
</g>
</svg>
