<?xml version="1.0" encoding="iso-8859-1"?>
<!-- Generator: Adobe Illustrator 19.0.0, SVG Export Plug-In . SVG Version: 6.00 Build 0)  -->
<svg version="1.1" id="Layer_1" xmlns="http://www.w3.org/2000/svg" xmlns:xlink="http://www.w3.org/1999/xlink" x="0px" y="0px"
	 viewBox="0 0 447.787 447.787" style="enable-background:new 0 0 447.787 447.787;" xml:space="preserve">
<g>
	<g>
		<polygon points="245.227,405.12 245.227,362.453 202.56,362.453 202.56,405.12 95.893,405.12 95.893,447.787 351.893,447.787 
			351.893,405.12 		"/>
	</g>
</g>
<g>
	<g>
		<polygon points="294.08,127.573 255.467,166.187 245.227,187.52 245.227,0 202.56,0 202.56,186.667 192.747,166.4 153.707,127.36 
			124.693,154.453 223.893,253.867 322.24,155.733 		"/>
	</g>
</g>
<g>
	<g>
		<polygon points="287.893,42.453 287.893,85.12 394.56,85.12 394.56,319.787 53.227,319.787 53.227,85.12 159.893,85.12 
			159.893,42.453 10.56,42.453 10.56,362.453 437.227,362.453 437.227,42.453 		"/>
	</g>
</g>
<g>
</g>
<g>
</g>
<g>
</g>
<g>
</g>
<g>
</g>
<g>
</g>
<g>
</g>
<g>
</g>
<g>
</g>
<g>
</g>
<g>
</g>
<g>
</g>
<g>
</g>
<g>
</g>
<g>
</g>
</svg>
