<?xml version="1.0" encoding="iso-8859-1"?>
<!-- Generator: Adobe Illustrator 19.0.0, SVG Export Plug-In . SVG Version: 6.00 Build 0)  -->
<svg version="1.1" id="Layer_1" xmlns="http://www.w3.org/2000/svg" xmlns:xlink="http://www.w3.org/1999/xlink" x="0px" y="0px"
	 viewBox="0 0 505.81 505.81" style="enable-background:new 0 0 505.81 505.81;" xml:space="preserve">
<g>
	<g>
		<path d="M390.168,60.981c-40.151,0.287-77.221,21.574-97.707,56.107c-20.486-34.532-57.556-55.819-97.707-56.107
			c-14.644,0.017-29.142,2.916-42.667,8.533l28.8,29.227c4.566-0.927,9.208-1.427,13.867-1.493
			c27.505,0.211,52.871,14.879,66.773,38.613l30.933,50.987l30.933-50.987c13.903-23.734,39.268-38.402,66.773-38.613
			c44.929,1.164,80.434,38.482,79.36,83.413c0,34.987-29.867,85.333-69.333,137.387l25.813,25.813
			c42.667-55.04,79.787-115.84,79.787-163.2C506.864,115.702,455.124,62.149,390.168,60.981z"/>
	</g>
</g>
<g>
	<g>
		<path d="M366.274,359.647c-24.533,28.373-50.133,55.467-73.813,78.293c-76.8-74.453-177.067-193.067-177.067-257.28
			c0.007-20.439,7.35-40.197,20.693-55.68c1.707-1.92-26.88-24.747-29.653-21.333c-17.729,21.744-27.378,48.958-27.307,77.013
			c0,114.987,213.333,306.987,213.333,306.987s39.893-36.053,85.333-86.4C384.834,393.567,368.621,356.874,366.274,359.647z"/>
	</g>
</g>
<g>
	<g>
		
			<rect x="228.399" y="-78.936" transform="matrix(0.7071 -0.7071 0.7071 0.7071 -105.6861 250.6614)" width="42.667" height="663.683"/>
	</g>
</g>
<g>
</g>
<g>
</g>
<g>
</g>
<g>
</g>
<g>
</g>
<g>
</g>
<g>
</g>
<g>
</g>
<g>
</g>
<g>
</g>
<g>
</g>
<g>
</g>
<g>
</g>
<g>
</g>
<g>
</g>
</svg>
