<?xml version="1.0" encoding="iso-8859-1"?>
<!-- Generator: Adobe Illustrator 19.0.0, SVG Export Plug-In . SVG Version: 6.00 Build 0)  -->
<svg version="1.1" id="Layer_1" xmlns="http://www.w3.org/2000/svg" xmlns:xlink="http://www.w3.org/1999/xlink" x="0px" y="0px"
	 viewBox="0 0 362.027 362.027" style="enable-background:new 0 0 362.027 362.027;" xml:space="preserve">
<g>
	<g>
		<polygon points="60.587,331.733 167.893,224.427 137.6,194.347 30.293,301.653 39.68,280.32 39.68,223.147 0,222.72 0,362.027 
			138.88,362.027 139.093,322.347 80.853,322.347 		"/>
	</g>
</g>
<g>
	<g>
		<polygon points="222.72,0 223.147,39.68 280.32,39.68 301.653,30.293 194.347,137.6 224.427,167.893 331.733,60.587 
			322.347,80.853 322.347,139.093 362.027,138.88 362.027,0 		"/>
	</g>
</g>
<g>
	<g>
		<polygon points="322.347,223.147 322.347,280.32 331.733,301.653 224.213,194.347 194.133,224.427 301.44,331.733 
			281.173,322.347 222.933,322.347 223.147,362.027 362.027,362.027 362.027,222.72 		"/>
	</g>
</g>
<g>
	<g>
		<polygon points="167.68,137.6 60.373,30.293 81.707,39.68 138.88,39.68 139.307,0 0,0 0,138.88 39.68,139.093 39.68,80.853 
			30.293,60.587 137.6,167.893 		"/>
	</g>
</g>
<g>
</g>
<g>
</g>
<g>
</g>
<g>
</g>
<g>
</g>
<g>
</g>
<g>
</g>
<g>
</g>
<g>
</g>
<g>
</g>
<g>
</g>
<g>
</g>
<g>
</g>
<g>
</g>
<g>
</g>
</svg>
