<?xml version="1.0" encoding="iso-8859-1"?>
<!-- Generator: Adobe Illustrator 19.0.0, SVG Export Plug-In . SVG Version: 6.00 Build 0)  -->
<svg version="1.1" id="Layer_1" xmlns="http://www.w3.org/2000/svg" xmlns:xlink="http://www.w3.org/1999/xlink" x="0px" y="0px"
	 viewBox="0 0 426.667 426.667" style="enable-background:new 0 0 426.667 426.667;" xml:space="preserve">
<g>
	<g>
		<path d="M213.333,0C95.513,0,0,95.513,0,213.333s95.513,213.333,213.333,213.333s213.333-95.513,213.333-213.333
			S331.154,0,213.333,0z M213.333,388.053c-96.495,0-174.72-78.225-174.72-174.72s78.225-174.72,174.72-174.72
			c96.446,0.117,174.602,78.273,174.72,174.72C388.053,309.829,309.829,388.053,213.333,388.053z"/>
	</g>
</g>
<g>
	<g>
		<path d="M355.627,213.333L213.333,106.667v80l-106.667-80V320l106.667-80v80L355.627,213.333z M253.227,185.813l36.48,27.52
			l-36.693,27.52L253.227,185.813z M146.56,242.773v-58.667l39.04,29.227L146.56,242.773z"/>
	</g>
</g>
<g>
</g>
<g>
</g>
<g>
</g>
<g>
</g>
<g>
</g>
<g>
</g>
<g>
</g>
<g>
</g>
<g>
</g>
<g>
</g>
<g>
</g>
<g>
</g>
<g>
</g>
<g>
</g>
<g>
</g>
</svg>
