<?xml version="1.0" encoding="iso-8859-1"?>
<!-- Generator: Adobe Illustrator 19.0.0, SVG Export Plug-In . SVG Version: 6.00 Build 0)  -->
<svg version="1.1" id="Layer_1" xmlns="http://www.w3.org/2000/svg" xmlns:xlink="http://www.w3.org/1999/xlink" x="0px" y="0px"
	 viewBox="0 0 499.766 499.766" style="enable-background:new 0 0 499.766 499.766;" xml:space="preserve">
<g>
	<g>
		
			<rect x="363.445" y="61.528" transform="matrix(0.7071 -0.7071 0.7071 0.7071 63.4795 318.9764)" width="106.667" height="42.667"/>
	</g>
</g>
<g>
	<g>
		<rect x="309.424" y="16.389" transform="matrix(0.7071 -0.7071 0.7071 0.7071 73.3271 252.4719)" width="64" height="42.667"/>
	</g>
</g>
<g>
	<g>
		<path d="M213.12,15.063l-60.373,180.907L0,348.929l150.827,150.827l152.96-152.96l181.12-60.373L213.12,15.063z M150.827,444.716
			L55.04,348.929l125.44-125.44l95.787,95.787L150.827,444.716z M201.6,184.023l29.227-90.027l173.867,173.867l-88.533,30.293
			L201.6,184.023z"/>
	</g>
</g>
<g>
	<g>
		<rect x="430.053" y="137.136" transform="matrix(0.7071 -0.7071 0.7071 0.7071 23.2776 373.1351)" width="64" height="42.667"/>
	</g>
</g>
<g>
	<g>
		<rect x="143.498" y="303" transform="matrix(0.7071 -0.7071 0.7071 0.7071 -177.9357 219.0912)" width="64" height="42.667"/>
	</g>
</g>
<g>
</g>
<g>
</g>
<g>
</g>
<g>
</g>
<g>
</g>
<g>
</g>
<g>
</g>
<g>
</g>
<g>
</g>
<g>
</g>
<g>
</g>
<g>
</g>
<g>
</g>
<g>
</g>
<g>
</g>
</svg>
