<?xml version="1.0" encoding="iso-8859-1"?>
<!-- Generator: Adobe Illustrator 19.0.0, SVG Export Plug-In . SVG Version: 6.00 Build 0)  -->
<svg version="1.1" id="Layer_1" xmlns="http://www.w3.org/2000/svg" xmlns:xlink="http://www.w3.org/1999/xlink" x="0px" y="0px"
	 viewBox="0 0 426.667 426.667" style="enable-background:new 0 0 426.667 426.667;" xml:space="preserve">
<g>
	<g>
		<polygon points="234.667,192 234.667,149.333 192,149.333 192,192 149.333,192 149.333,234.667 192,234.667 192,277.333 
			234.667,277.333 234.667,234.667 277.333,234.667 277.333,192 		"/>
	</g>
</g>
<g>
	<g>
		<polygon points="384,277.333 384,341.333 277.333,341.333 277.333,384 426.667,384 426.667,277.333 		"/>
	</g>
</g>
<g>
	<g>
		<polygon points="277.333,42.667 277.333,85.333 384,85.333 384,149.333 426.667,149.333 426.667,42.667 		"/>
	</g>
</g>
<g>
	<g>
		<polygon points="0,42.667 0,149.333 42.667,149.333 42.667,85.333 149.333,85.333 149.333,42.667 		"/>
	</g>
</g>
<g>
	<g>
		<polygon points="42.667,341.333 42.667,277.333 0,277.333 0,384 149.333,384 149.333,341.333 		"/>
	</g>
</g>
<g>
</g>
<g>
</g>
<g>
</g>
<g>
</g>
<g>
</g>
<g>
</g>
<g>
</g>
<g>
</g>
<g>
</g>
<g>
</g>
<g>
</g>
<g>
</g>
<g>
</g>
<g>
</g>
<g>
</g>
</svg>
