<?xml version="1.0" encoding="iso-8859-1"?>
<!-- Generator: Adobe Illustrator 19.0.0, SVG Export Plug-In . SVG Version: 6.00 Build 0)  -->
<svg version="1.1" id="Layer_1" xmlns="http://www.w3.org/2000/svg" xmlns:xlink="http://www.w3.org/1999/xlink" x="0px" y="0px"
	 viewBox="0 0 448 448" style="enable-background:new 0 0 448 448;" xml:space="preserve">
<g>
	<g>
		<polygon points="234.667,183.253 136.107,281.387 164.48,309.547 203.093,270.933 213.333,249.6 213.333,437.12 256,437.12 
			256,250.667 265.813,270.72 304.853,309.76 333.867,282.667 		"/>
	</g>
</g>
<g>
	<g>
		<polygon points="234.667,74.88 192,10.88 0,10.88 0,74.88 0,160.213 0,394.88 170.667,394.88 170.667,352.213 42.667,352.213 
			42.667,160.213 42.667,74.88 42.667,53.547 170.667,53.547 213.333,117.547 405.333,117.547 405.333,352.213 298.667,352.213 
			298.667,394.88 448,394.88 448,74.88 		"/>
	</g>
</g>
<g>
</g>
<g>
</g>
<g>
</g>
<g>
</g>
<g>
</g>
<g>
</g>
<g>
</g>
<g>
</g>
<g>
</g>
<g>
</g>
<g>
</g>
<g>
</g>
<g>
</g>
<g>
</g>
<g>
</g>
</svg>
