<?xml version="1.0" encoding="iso-8859-1"?>
<!-- Generator: Adobe Illustrator 19.0.0, SVG Export Plug-In . SVG Version: 6.00 Build 0)  -->
<svg version="1.1" id="Layer_1" xmlns="http://www.w3.org/2000/svg" xmlns:xlink="http://www.w3.org/1999/xlink" x="0px" y="0px"
	 viewBox="0 0 448 448" style="enable-background:new 0 0 448 448;" xml:space="preserve">
<g>
	<g>
		<polygon points="304.853,310.08 266.24,348.693 256,370.027 256,182.507 213.333,182.507 213.333,368.96 203.52,349.12 
			164.48,309.867 135.467,336.96 234.667,436.373 333.013,338.24 		"/>
	</g>
</g>
<g>
	<g>
		<polygon points="234.667,75.627 192,11.627 0,11.627 0,75.627 0,160.96 0,395.627 106.667,395.627 106.667,352.96 42.667,352.96 
			42.667,160.96 42.667,75.627 42.667,54.293 170.667,54.293 213.333,118.293 405.333,118.293 405.333,352.96 362.667,352.96 
			362.667,395.627 448,395.627 448,75.627 		"/>
	</g>
</g>
<g>
</g>
<g>
</g>
<g>
</g>
<g>
</g>
<g>
</g>
<g>
</g>
<g>
</g>
<g>
</g>
<g>
</g>
<g>
</g>
<g>
</g>
<g>
</g>
<g>
</g>
<g>
</g>
<g>
</g>
</svg>
