<?xml version="1.0" encoding="iso-8859-1"?>
<!-- Generator: Adobe Illustrator 19.0.0, SVG Export Plug-In . SVG Version: 6.00 Build 0)  -->
<svg version="1.1" id="Layer_1" xmlns="http://www.w3.org/2000/svg" xmlns:xlink="http://www.w3.org/1999/xlink" x="0px" y="0px"
	 viewBox="0 0 384 384" style="enable-background:new 0 0 384 384;" xml:space="preserve">
<g>
	<g>
		<path d="M384,213.333v-42.667h-65.92c-3.071-18.942-10.362-36.95-21.333-52.693l46.507-46.507l-30.507-30.293l-46.72,46.507
			c-15.743-10.971-33.752-18.262-52.693-21.333V0h-42.667v65.92c-18.942,3.072-36.95,10.362-52.693,21.333l-46.72-46.08
			l-30.08,30.08l46.507,46.72c-10.971,15.743-18.262,33.752-21.333,52.693H0v42.667h65.92c3.072,18.942,10.362,36.95,21.333,52.693
			l-46.08,46.72l30.08,30.08l46.507-46.507c15.743,10.971,33.752,18.262,52.693,21.333V384h42.667v-65.92
			c18.941-3.071,36.95-10.362,52.693-21.333l46.507,46.507l30.08-30.08l-46.507-46.507c10.971-15.743,18.262-33.752,21.333-52.693
			L384,213.333z M192,281.387c-49.318-0.117-89.269-40.068-89.387-89.387c0-49.367,40.02-89.387,89.387-89.387
			s89.387,40.02,89.387,89.387S241.367,281.387,192,281.387z"/>
	</g>
</g>
<g>
	<g>
		<circle cx="192" cy="192" r="42.667"/>
	</g>
</g>
<g>
</g>
<g>
</g>
<g>
</g>
<g>
</g>
<g>
</g>
<g>
</g>
<g>
</g>
<g>
</g>
<g>
</g>
<g>
</g>
<g>
</g>
<g>
</g>
<g>
</g>
<g>
</g>
<g>
</g>
</svg>
