<?xml version="1.0" encoding="iso-8859-1"?>
<!-- Generator: Adobe Illustrator 19.0.0, SVG Export Plug-In . SVG Version: 6.00 Build 0)  -->
<svg version="1.1" id="Layer_1" xmlns="http://www.w3.org/2000/svg" xmlns:xlink="http://www.w3.org/1999/xlink" x="0px" y="0px"
	 viewBox="0 0 469.382 469.382" style="enable-background:new 0 0 469.382 469.382;" xml:space="preserve">
<g>
	<g>
		<path d="M271.898,405.375c-7.668-13.28-21.872-21.424-37.207-21.332c-15.151,0.091-29.118,8.211-36.693,21.333
			c-44.326-0.638-85.496-23.058-110.08-59.947l-2.56-4.053H42.691l24.747,41.173c24.36,40.628,68.255,65.491,115.627,65.493h14.933
			c11.783,20.407,37.877,27.398,58.284,15.616C276.689,451.876,283.68,425.781,271.898,405.375z"/>
	</g>
</g>
<g>
	<g>
		<path d="M446.958,192.043C435.19,74.811,330.616-10.685,213.385,1.083C112.415,11.218,32.56,91.074,22.425,192.043h-22.4v170.667
			h128V192.043h-62.72C77.295,98.552,162.805,32.483,256.296,44.474c77.037,9.881,137.688,70.531,147.568,147.568h-62.507v170.667
			h128V192.043H446.958z M85.358,234.709v85.333H42.691v-85.333H85.358z M426.691,320.043h-42.667v-85.333h42.667V320.043z"/>
	</g>
</g>
<g>
</g>
<g>
</g>
<g>
</g>
<g>
</g>
<g>
</g>
<g>
</g>
<g>
</g>
<g>
</g>
<g>
</g>
<g>
</g>
<g>
</g>
<g>
</g>
<g>
</g>
<g>
</g>
<g>
</g>
</svg>
