<?xml version="1.0" encoding="iso-8859-1"?>
<!-- Generator: Adobe Illustrator 19.0.0, SVG Export Plug-In . SVG Version: 6.00 Build 0)  -->
<svg version="1.1" id="Layer_1" xmlns="http://www.w3.org/2000/svg" xmlns:xlink="http://www.w3.org/1999/xlink" x="0px" y="0px"
	 viewBox="0 0 499.47 499.47" style="enable-background:new 0 0 499.47 499.47;" xml:space="preserve">
<g>
	<g>
		<rect x="179.457" y="456.804" width="128" height="42.667"/>
	</g>
</g>
<g>
	<g>
		<path d="M333.697,321.337c-10.332,9.429-22.062,17.201-34.773,23.04l-25.6,48.427H213.59l-25.813-48.427
			c-67.881-30.609-98.096-110.45-67.487-178.331c5.766-12.788,13.493-24.597,22.901-35.002l-24.533-24.96
			c-64.041,69.159-59.892,177.14,9.267,241.181c7.001,6.483,14.534,12.368,22.519,17.592l37.547,70.613h110.933l37.547-70.613
			c8.097-5.324,15.732-11.319,22.827-17.92L333.697,321.337z"/>
	</g>
</g>
<g>
	<g>
		<path d="M243.249,51.678c-32.517,0.04-64.345,9.367-91.739,26.886l25.173,25.387c64.378-37.183,146.71-15.137,183.893,49.242
			c24.061,41.659,24.061,92.992,0,134.652l26.24,26.24c17.816-27.357,27.302-59.3,27.307-91.947
			C414.009,127.88,337.506,51.563,243.249,51.678z"/>
	</g>
</g>
<g>
	<g>
		
			<rect x="228.402" y="-82.109" transform="matrix(0.7071 -0.7071 0.7071 0.7071 -103.4417 249.734)" width="42.667" height="663.683"/>
	</g>
</g>
<g>
</g>
<g>
</g>
<g>
</g>
<g>
</g>
<g>
</g>
<g>
</g>
<g>
</g>
<g>
</g>
<g>
</g>
<g>
</g>
<g>
</g>
<g>
</g>
<g>
</g>
<g>
</g>
<g>
</g>
</svg>
