<?xml version="1.0" encoding="iso-8859-1"?>
<!-- Generator: Adobe Illustrator 19.0.0, SVG Export Plug-In . SVG Version: 6.00 Build 0)  -->
<svg version="1.1" id="Layer_1" xmlns="http://www.w3.org/2000/svg" xmlns:xlink="http://www.w3.org/1999/xlink" x="0px" y="0px"
	 viewBox="0 0 448 448" style="enable-background:new 0 0 448 448;" xml:space="preserve">
<g>
	<g>
		<rect x="138.667" y="149.333" width="170.667" height="42.667"/>
	</g>
</g>
<g>
	<g>
		<rect x="160" y="405.333" width="128" height="42.667"/>
	</g>
</g>
<g>
	<g>
		<path d="M224,0C129.743,0,53.333,76.41,53.333,170.667c-0.19,57.714,29.092,111.532,77.653,142.72L168.533,384h110.933
			l37.547-70.613c48.561-31.188,77.843-85.007,77.653-142.72C394.667,76.41,318.257,0,224,0z M289.92,280.107l-5.12,2.987
			l-30.933,58.24h-59.733L163.2,282.88l-5.12-2.987C119.713,256.843,96.173,215.425,96,170.667c0-70.692,57.308-128,128-128
			s128,57.308,128,128C351.902,215.502,328.352,257.017,289.92,280.107z"/>
	</g>
</g>
<g>
</g>
<g>
</g>
<g>
</g>
<g>
</g>
<g>
</g>
<g>
</g>
<g>
</g>
<g>
</g>
<g>
</g>
<g>
</g>
<g>
</g>
<g>
</g>
<g>
</g>
<g>
</g>
<g>
</g>
</svg>
