<?xml version="1.0" encoding="iso-8859-1"?>
<!-- Generator: Adobe Illustrator 19.0.0, SVG Export Plug-In . SVG Version: 6.00 Build 0)  -->
<svg version="1.1" id="Layer_1" xmlns="http://www.w3.org/2000/svg" xmlns:xlink="http://www.w3.org/1999/xlink" x="0px" y="0px"
	 viewBox="0 0 512 512" style="enable-background:new 0 0 512 512;" xml:space="preserve">
<g>
	<g>
		<rect x="192" y="469.333" width="128" height="42.667"/>
	</g>
</g>
<g>
	<g>
		<rect x="413.013" y="213.333" width="77.653" height="42.667"/>
	</g>
</g>
<g>
	<g>
		<rect x="21.333" y="213.333" width="72.747" height="42.667"/>
	</g>
</g>
<g>
	<g>
		
			<rect x="359.956" y="73.173" transform="matrix(0.7071 -0.7071 0.7071 0.7071 49.2557 307.9274)" width="72.747" height="42.667"/>
	</g>
</g>
<g>
	<g>
		
			<rect x="94.337" y="58.178" transform="matrix(0.7071 -0.7071 0.7071 0.7071 -32.9037 109.4535)" width="42.667" height="72.534"/>
	</g>
</g>
<g>
	<g>
		<rect x="234.667" width="42.667" height="72.533"/>
	</g>
</g>
<g>
	<g>
		<path d="M256,64c-94.257,0-170.667,76.41-170.667,170.667c-0.19,57.714,29.092,111.532,77.653,142.72L200.533,448h110.933
			l37.547-70.613c48.561-31.188,77.843-85.007,77.653-142.72C426.667,140.41,350.257,64,256,64z M321.92,344.107l-5.12,2.987
			l-30.933,58.24h-59.733L195.2,346.88l-5.12-2.987c-38.367-23.051-61.907-64.468-62.08-109.227c0-70.692,57.308-128,128-128
			s128,57.308,128,128C383.902,279.502,360.352,321.017,321.92,344.107z"/>
	</g>
</g>
<g>
</g>
<g>
</g>
<g>
</g>
<g>
</g>
<g>
</g>
<g>
</g>
<g>
</g>
<g>
</g>
<g>
</g>
<g>
</g>
<g>
</g>
<g>
</g>
<g>
</g>
<g>
</g>
<g>
</g>
</svg>
