<?xml version="1.0" encoding="iso-8859-1"?>
<!-- Generator: Adobe Illustrator 19.0.0, SVG Export Plug-In . SVG Version: 6.00 Build 0)  -->
<svg version="1.1" id="Layer_1" xmlns="http://www.w3.org/2000/svg" xmlns:xlink="http://www.w3.org/1999/xlink" x="0px" y="0px"
	 viewBox="0 0 482.56 482.56" style="enable-background:new 0 0 482.56 482.56;" xml:space="preserve">
<g>
	<g>
		
			<rect x="91.946" y="219.96" transform="matrix(0.7071 -0.7071 0.7071 0.7071 -99.9511 241.284)" width="298.668" height="42.667"/>
	</g>
</g>
<g>
	<g>
		<polygon points="331.733,0 180.907,150.827 226.133,196.053 256.427,165.76 241.28,150.827 331.733,60.373 422.187,150.827 
			331.733,241.28 316.8,226.133 286.507,256.427 331.733,301.653 482.56,150.827 		"/>
	</g>
</g>
<g>
	<g>
		<polygon points="256.427,286.507 226.133,316.8 241.28,331.733 150.827,422.187 60.373,331.733 150.827,241.28 165.76,256.427 
			196.053,226.133 150.827,180.907 0,331.733 150.827,482.56 301.653,331.733 		"/>
	</g>
</g>
<g>
</g>
<g>
</g>
<g>
</g>
<g>
</g>
<g>
</g>
<g>
</g>
<g>
</g>
<g>
</g>
<g>
</g>
<g>
</g>
<g>
</g>
<g>
</g>
<g>
</g>
<g>
</g>
<g>
</g>
</svg>
