<?xml version="1.0" encoding="iso-8859-1"?>
<!-- Generator: Adobe Illustrator 19.0.0, SVG Export Plug-In . SVG Version: 6.00 Build 0)  -->
<svg version="1.1" id="Layer_1" xmlns="http://www.w3.org/2000/svg" xmlns:xlink="http://www.w3.org/1999/xlink" x="0px" y="0px"
	 viewBox="0 0 440.32 440.32" style="enable-background:new 0 0 440.32 440.32;" xml:space="preserve">
<g>
	<g>
		<path d="M269.958,125.867V85.334c-47.128,0-85.333,38.205-85.333,85.333S222.829,256,269.958,256v-40.533
			c-24.369-0.879-43.921-20.431-44.8-44.8C226.037,146.298,245.589,126.746,269.958,125.867z"/>
	</g>
</g>
<g>
	<g>
		<path d="M375.821,37.119C345.724,13.171,308.42,0.091,269.958,0C175.701-0.177,99.148,76.09,98.971,170.346
			c-0.073,38.886,13.136,76.632,37.44,106.987L0.091,412.8l27.52,27.52l135.68-136.107c73.756,58.689,181.124,46.474,239.812-27.282
			S449.577,95.808,375.821,37.119z M269.958,302.72L269.958,302.72c-72.931,0-132.053-59.122-132.053-132.053
			S197.027,38.614,269.958,38.614s132.053,59.122,132.053,132.053S342.889,302.72,269.958,302.72z"/>
	</g>
</g>
<g>
</g>
<g>
</g>
<g>
</g>
<g>
</g>
<g>
</g>
<g>
</g>
<g>
</g>
<g>
</g>
<g>
</g>
<g>
</g>
<g>
</g>
<g>
</g>
<g>
</g>
<g>
</g>
<g>
</g>
</svg>
