<?xml version="1.0" encoding="iso-8859-1"?>
<!-- Generator: Adobe Illustrator 19.0.0, SVG Export Plug-In . SVG Version: 6.00 Build 0)  -->
<svg version="1.1" id="Layer_1" xmlns="http://www.w3.org/2000/svg" xmlns:xlink="http://www.w3.org/1999/xlink" x="0px" y="0px"
	 viewBox="0 0 499.47 499.47" style="enable-background:new 0 0 499.47 499.47;" xml:space="preserve">
<g>
	<g>
		<path d="M242.908,9.356c-36.44,0.188-70.262,18.966-89.691,49.795l31.36,31.36c13.853-32.519,51.444-47.65,83.963-33.798
			c23.559,10.036,38.868,33.15,38.917,58.758v97.92l38.187,38.187c2.863-9.556,4.371-19.466,4.48-29.44V115.47
			C349.819,56.561,301.817,9.052,242.908,9.356z"/>
	</g>
</g>
<g>
	<g>
		<path d="M290.817,264.804c-23.773,26.157-64.25,28.089-90.407,4.316c-13.248-12.041-20.847-29.08-20.953-46.982V157.07l-41.6-41.6
			c-0.56,3.747-0.916,7.521-1.067,11.307v95.36c0,58.91,47.756,106.667,106.667,106.667c23.102,0.141,45.603-7.359,64-21.333
			C313.643,302.137,292.097,263.524,290.817,264.804z"/>
	</g>
</g>
<g>
	<g>
		<path d="M389.163,222.35c0,1.493,0,2.987,0,4.267c0.083,19.573-3.837,38.957-11.52,56.96l31.36,31.36
			c14.285-27.23,21.614-57.571,21.333-88.32c0-1.28,0-2.773,0-4.267H389.163z"/>
	</g>
</g>
<g>
	<g>
		<path d="M347.137,328.804c-22.87,23.368-52.917,38.392-85.333,42.667h-36.267c-72.868-9.679-127.47-71.561-128-145.067
			c0-1.28,0-2.773,0-4.267H56.15c0,1.493,0,2.987,0,4.267c0.007,95.259,71.357,175.412,165.973,186.453v86.613h42.667v-86.613
			c39.925-4.546,77.326-21.825,106.667-49.28C375.937,359.31,350.123,326.244,347.137,328.804z"/>
	</g>
</g>
<g>
	<g>
		
			<rect x="228.402" y="-82.109" transform="matrix(0.7071 -0.7071 0.7071 0.7071 -103.4417 249.734)" width="42.667" height="663.683"/>
	</g>
</g>
<g>
</g>
<g>
</g>
<g>
</g>
<g>
</g>
<g>
</g>
<g>
</g>
<g>
</g>
<g>
</g>
<g>
</g>
<g>
</g>
<g>
</g>
<g>
</g>
<g>
</g>
<g>
</g>
<g>
</g>
</svg>
