<?xml version="1.0" encoding="iso-8859-1"?>
<!-- Generator: Adobe Illustrator 19.0.0, SVG Export Plug-In . SVG Version: 6.00 Build 0)  -->
<svg version="1.1" id="Layer_1" xmlns="http://www.w3.org/2000/svg" xmlns:xlink="http://www.w3.org/1999/xlink" x="0px" y="0px"
	 viewBox="0 0 490.667 490.667" style="enable-background:new 0 0 490.667 490.667;" xml:space="preserve">
<g>
	<g>
		<path d="M390.827,213.333c0,1.493,0,2.987,0,4.267c-0.53,73.506-55.132,135.388-128,145.067H226.56
			c-72.868-9.679-127.47-71.561-128-145.067c0-1.28,0-2.773,0-4.267H57.813c0,1.493,0,2.987,0,4.267
			c0.007,95.259,71.357,175.412,165.973,186.453v86.613h42.667v-86.613c94.786-10.841,166.368-91.05,166.4-186.453
			c0-1.28,0-2.773,0-4.267H390.827z"/>
	</g>
</g>
<g>
	<g>
		<path d="M245.12,0c-58.91,0-106.667,47.756-106.667,106.667v106.667C138.453,272.244,186.21,320,245.12,320
			s106.667-47.756,106.667-106.667V106.667C351.787,47.756,304.03,0,245.12,0z M309.12,213.333c0,35.346-28.654,64-64,64
			s-64-28.654-64-64V106.667c0-35.346,28.654-64,64-64s64,28.654,64,64V213.333z"/>
	</g>
</g>
<g>
</g>
<g>
</g>
<g>
</g>
<g>
</g>
<g>
</g>
<g>
</g>
<g>
</g>
<g>
</g>
<g>
</g>
<g>
</g>
<g>
</g>
<g>
</g>
<g>
</g>
<g>
</g>
<g>
</g>
</svg>
