<?xml version="1.0" encoding="iso-8859-1"?>
<!-- Generator: Adobe Illustrator 19.0.0, SVG Export Plug-In . SVG Version: 6.00 Build 0)  -->
<svg version="1.1" id="Layer_1" xmlns="http://www.w3.org/2000/svg" xmlns:xlink="http://www.w3.org/1999/xlink" x="0px" y="0px"
	 viewBox="0 0 426.872 426.872" style="enable-background:new 0 0 426.872 426.872;" xml:space="preserve">
<g>
	<g>
		<path d="M79.154,47.54c-91.594,74.109-105.769,208.439-31.66,300.033l33.28-27.52c-24.564-30.121-37.978-67.799-37.973-106.667
			c0-94.257,76.41-170.667,170.667-170.667V0.053C164.577,0.024,117.161,16.788,79.154,47.54z"/>
	</g>
</g>
<g>
	<g>
		<path d="M213.467,0.053c-7.7-0.101-15.398,0.327-23.04,1.28c-8.189,0.797-16.315,2.151-24.32,4.053l26.027,30.507
			c42.191,47.484,54.52,114.472,32,173.867c-26.177,65.694-89.291,109.201-160,110.293l-37.333-2.347l16,23.68l11.52,14.08
			c31.616,35.445,74.156,59.326,120.88,67.858c115.904,21.166,227.021-55.634,248.187-171.538
			c2.322-12.692,3.489-25.568,3.484-38.471C426.833,95.495,331.288,0.014,213.467,0.053z M355.915,308.48
			c-52.399,78.349-158.392,99.386-236.741,46.987c16.412-4.404,32.24-10.753,47.145-18.913
			c103.349-56.574,141.269-186.218,84.695-289.567c20.673,4.586,40.312,12.98,57.914,24.752
			C387.278,124.138,408.315,230.131,355.915,308.48z"/>
	</g>
</g>
<g>
</g>
<g>
</g>
<g>
</g>
<g>
</g>
<g>
</g>
<g>
</g>
<g>
</g>
<g>
</g>
<g>
</g>
<g>
</g>
<g>
</g>
<g>
</g>
<g>
</g>
<g>
</g>
<g>
</g>
</svg>
