<?xml version="1.0" encoding="iso-8859-1"?>
<!-- Generator: Adobe Illustrator 19.0.0, SVG Export Plug-In . SVG Version: 6.00 Build 0)  -->
<svg version="1.1" id="Layer_1" xmlns="http://www.w3.org/2000/svg" xmlns:xlink="http://www.w3.org/1999/xlink" x="0px" y="0px"
	 viewBox="0 0 469.333 469.333" style="enable-background:new 0 0 469.333 469.333;" xml:space="preserve">
<g>
	<g>
		<polygon points="192,213.333 64.213,213.333 85.76,204.8 126.293,164.48 98.56,136.107 0,234.453 98.347,332.8 126.293,304.853 
			85.12,263.68 64.427,256 192,256 		"/>
	</g>
</g>
<g>
	<g>
		<polygon points="370.773,136.107 343.04,164.48 383.573,204.8 405.12,213.333 277.333,213.333 277.333,256 404.907,256 
			384.213,263.68 343.04,304.853 370.987,332.8 469.333,234.453 		"/>
	</g>
</g>
<g>
	<g>
		<polygon points="304.853,343.04 263.68,384.213 256,404.907 256,277.333 213.333,277.333 213.333,405.12 204.8,383.573 
			164.48,343.04 136.107,370.773 234.453,469.333 332.8,370.987 		"/>
	</g>
</g>
<g>
	<g>
		<polygon points="234.453,0 136.107,98.56 164.48,126.293 204.8,85.76 213.333,64.213 213.333,192 256,192 256,64.427 
			263.68,85.12 304.853,126.293 332.8,98.347 		"/>
	</g>
</g>
<g>
</g>
<g>
</g>
<g>
</g>
<g>
</g>
<g>
</g>
<g>
</g>
<g>
</g>
<g>
</g>
<g>
</g>
<g>
</g>
<g>
</g>
<g>
</g>
<g>
</g>
<g>
</g>
<g>
</g>
</svg>
