<?xml version="1.0" encoding="iso-8859-1"?>
<!-- Generator: Adobe Illustrator 19.0.0, SVG Export Plug-In . SVG Version: 6.00 Build 0)  -->
<svg version="1.1" id="Layer_1" xmlns="http://www.w3.org/2000/svg" xmlns:xlink="http://www.w3.org/1999/xlink" x="0px" y="0px"
	 viewBox="0 0 426.667 426.667" style="enable-background:new 0 0 426.667 426.667;" xml:space="preserve">
<g>
	<g>
		<path d="M53.333,0v64H10.667v42.667h42.667v42.667H10.667V192h42.667v42.667H10.667v42.667h42.667V320H10.667v42.667h42.667v64
			H416V0H53.333z M373.333,384H96v-21.333h21.333V320H96v-42.667h21.333v-42.667H96V192h21.333v-42.667H96v-42.667h21.333V64H96
			V42.667h277.333V384z"/>
	</g>
</g>
<g>
	<g>
		<rect x="138.667" y="85.333" width="42.667" height="42.667"/>
	</g>
</g>
<g>
	<g>
		<rect x="202.667" y="85.333" width="128" height="42.667"/>
	</g>
</g>
<g>
	<g>
		<rect x="138.667" y="170.667" width="106.667" height="42.667"/>
	</g>
</g>
<g>
	<g>
		<rect x="138.667" y="256" width="170.667" height="42.667"/>
	</g>
</g>
<g>
</g>
<g>
</g>
<g>
</g>
<g>
</g>
<g>
</g>
<g>
</g>
<g>
</g>
<g>
</g>
<g>
</g>
<g>
</g>
<g>
</g>
<g>
</g>
<g>
</g>
<g>
</g>
<g>
</g>
</svg>
