<?xml version="1.0" encoding="iso-8859-1"?>
<!-- Generator: Adobe Illustrator 19.0.0, SVG Export Plug-In . SVG Version: 6.00 Build 0)  -->
<svg version="1.1" id="Layer_1" xmlns="http://www.w3.org/2000/svg" xmlns:xlink="http://www.w3.org/1999/xlink" x="0px" y="0px"
	 viewBox="0 0 426.667 426.667" style="enable-background:new 0 0 426.667 426.667;" xml:space="preserve">
<g>
	<g>
		<polygon points="256,256 256,298.667 170.667,298.667 170.667,256 128,256 128,298.667 128,341.333 170.667,341.333 256,341.333 
			298.667,341.333 298.667,298.667 298.667,256 		"/>
	</g>
</g>
<g>
	<g>
		<polygon points="425.813,256 359.467,49.707 320,64 381.013,256 298.667,256 298.667,298.667 384,298.667 384,384 42.667,384 
			42.667,298.667 128,298.667 128,256 45.653,256 106.667,64 67.413,49.28 0.853,256 0,256 0,426.667 426.667,426.667 426.667,256 
					"/>
	</g>
</g>
<g>
	<g>
		<polygon points="213.12,0 114.773,98.133 143.147,126.293 181.76,87.68 192.213,66.347 192.213,255.787 234.667,255.787 
			234.667,67.2 244.48,87.253 283.52,126.293 312.533,99.413 		"/>
	</g>
</g>
<g>
</g>
<g>
</g>
<g>
</g>
<g>
</g>
<g>
</g>
<g>
</g>
<g>
</g>
<g>
</g>
<g>
</g>
<g>
</g>
<g>
</g>
<g>
</g>
<g>
</g>
<g>
</g>
<g>
</g>
</svg>
