<?xml version="1.0" encoding="iso-8859-1"?>
<!-- Generator: Adobe Illustrator 19.0.0, SVG Export Plug-In . SVG Version: 6.00 Build 0)  -->
<svg version="1.1" id="Layer_1" xmlns="http://www.w3.org/2000/svg" xmlns:xlink="http://www.w3.org/1999/xlink" x="0px" y="0px"
	 viewBox="0 0 499.465 499.465" style="enable-background:new 0 0 499.465 499.465;" xml:space="preserve">
<g>
	<g>
		<path d="M392.787,371.47v42.667H94.121V243.47h64v-85.333c0.032-7.213,1.036-14.389,2.987-21.333
			c0-2.347-36.053-27.733-38.4-21.333c-4.822,13.707-7.275,28.136-7.253,42.667v42.667h-64v256h384v-42.667L392.787,371.47z"/>
	</g>
</g>
<g>
	<g>
		<path d="M371.454,200.804v-42.667c-0.378-70.691-57.991-127.692-128.682-127.314c-31.25,0.167-61.359,11.76-84.651,32.594
			l29.867,30.72c15.336-13.527,35.019-21.098,55.467-21.333c47.128,0,85.333,38.205,85.333,85.333v76.587l8.747,8.747h55.253v55.253
			l42.667,42.667V200.804H371.454z"/>
	</g>
</g>
<g>
	<g>
		
			<rect x="228.399" y="-82.109" transform="matrix(0.7071 -0.7071 0.7071 0.7071 -103.4426 249.7321)" width="42.667" height="663.683"/>
	</g>
</g>
<g>
</g>
<g>
</g>
<g>
</g>
<g>
</g>
<g>
</g>
<g>
</g>
<g>
</g>
<g>
</g>
<g>
</g>
<g>
</g>
<g>
</g>
<g>
</g>
<g>
</g>
<g>
</g>
<g>
</g>
</svg>
