<?xml version="1.0" encoding="iso-8859-1"?>
<!-- Generator: Adobe Illustrator 19.0.0, SVG Export Plug-In . SVG Version: 6.00 Build 0)  -->
<svg version="1.1" id="Layer_1" xmlns="http://www.w3.org/2000/svg" xmlns:xlink="http://www.w3.org/1999/xlink" x="0px" y="0px"
	 viewBox="0 0 425.817 425.817" style="enable-background:new 0 0 425.817 425.817;" xml:space="preserve">
<g>
	<g>
		
			<rect x="176.225" y="161.467" transform="matrix(0.7071 -0.7071 0.7071 0.7071 -64.5856 209.6785)" width="89.174" height="42.667"/>
	</g>
</g>
<g>
	<g>
		<path d="M229.738,354.987c-36.868,34.354-94.023,34.354-130.89,0c-38.79-36.144-40.934-96.89-4.79-135.68l158.293-158.72
			l91.307,90.453L222.911,271.787c-7.987,6.84-19.766,6.84-27.753,0c-8.949-7.664-9.991-21.131-2.327-30.08l12.373-12.373
			l-30.08-30.08L161.898,211.2c-1.102,1.026-2.167,2.091-3.193,3.193c-24.096,25.86-22.667,66.357,3.193,90.453
			s66.357,22.667,90.453-3.193l150.827-150.827L252.351,0L63.765,188.587c-26.464,26.19-41.284,61.922-41.125,99.154
			c0.328,76.583,62.676,138.4,139.258,138.072c36.959,0.252,72.471-14.352,98.56-40.533L372.885,272l-30.08-30.08L229.738,354.987z"
			/>
	</g>
</g>
<g>
</g>
<g>
</g>
<g>
</g>
<g>
</g>
<g>
</g>
<g>
</g>
<g>
</g>
<g>
</g>
<g>
</g>
<g>
</g>
<g>
</g>
<g>
</g>
<g>
</g>
<g>
</g>
<g>
</g>
</svg>
