<?xml version="1.0" encoding="iso-8859-1"?>
<!-- Generator: Adobe Illustrator 19.0.0, SVG Export Plug-In . SVG Version: 6.00 Build 0)  -->
<svg version="1.1" id="Layer_1" xmlns="http://www.w3.org/2000/svg" xmlns:xlink="http://www.w3.org/1999/xlink" x="0px" y="0px"
	 viewBox="0 0 426.667 426.667" style="enable-background:new 0 0 426.667 426.667;" xml:space="preserve">
<g>
	<g>
		<rect x="192" y="21.333" width="42.667" height="384"/>
	</g>
</g>
<g>
	<g>
		
			<rect x="259.606" y="185.483" transform="matrix(0.7024 -0.7118 0.7118 0.7024 -115.0763 283.0377)" width="42.667" height="187.306"/>
	</g>
</g>
<g>
	<g>
		
			<rect x="53.385" y="258.124" transform="matrix(0.712 -0.7021 0.7021 0.712 -153.8779 183.7181)" width="187.307" height="42.667"/>
	</g>
</g>
<g>
	<g>
		<path d="M213.333,0C95.513,0,0,95.513,0,213.333s95.513,213.333,213.333,213.333s213.333-95.513,213.333-213.333
			S331.154,0,213.333,0z M213.333,388.053c-96.495,0-174.72-78.225-174.72-174.72s78.225-174.72,174.72-174.72
			c96.446,0.117,174.602,78.273,174.72,174.72C388.053,309.829,309.829,388.053,213.333,388.053z"/>
	</g>
</g>
<g>
</g>
<g>
</g>
<g>
</g>
<g>
</g>
<g>
</g>
<g>
</g>
<g>
</g>
<g>
</g>
<g>
</g>
<g>
</g>
<g>
</g>
<g>
</g>
<g>
</g>
<g>
</g>
<g>
</g>
</svg>
