<?xml version="1.0" encoding="iso-8859-1"?>
<!-- Generator: Adobe Illustrator 19.0.0, SVG Export Plug-In . SVG Version: 6.00 Build 0)  -->
<svg version="1.1" id="Layer_1" xmlns="http://www.w3.org/2000/svg" xmlns:xlink="http://www.w3.org/1999/xlink" x="0px" y="0px"
	 viewBox="0 0 469.333 469.333" style="enable-background:new 0 0 469.333 469.333;" xml:space="preserve">
<g>
	<g>
		<path d="M0,96v362.667h469.333V96H0z M426.667,416h-384V138.667h384V416z"/>
	</g>
</g>
<g>
	<g>
		<path d="M288,181.333c-53.019,0-96,42.981-96,96c0,53.019,42.981,96,96,96s96-42.981,96-96
			C384,224.314,341.019,181.333,288,181.333z M288,335.147c-31.929,0-57.813-25.884-57.813-57.813
			c0-31.929,25.884-57.813,57.813-57.813s57.813,25.884,57.813,57.813S319.929,335.147,288,335.147z"/>
	</g>
</g>
<g>
	<g>
		<rect x="85.333" y="181.333" width="64" height="42.667"/>
	</g>
</g>
<g>
	<g>
		<rect x="213.333" y="10.667" width="170.667" height="42.667"/>
	</g>
</g>
<g>
</g>
<g>
</g>
<g>
</g>
<g>
</g>
<g>
</g>
<g>
</g>
<g>
</g>
<g>
</g>
<g>
</g>
<g>
</g>
<g>
</g>
<g>
</g>
<g>
</g>
<g>
</g>
<g>
</g>
</svg>
