<?xml version="1.0" encoding="iso-8859-1"?>
<!-- Generator: Adobe Illustrator 19.0.0, SVG Export Plug-In . SVG Version: 6.00 Build 0)  -->
<svg version="1.1" id="Layer_1" xmlns="http://www.w3.org/2000/svg" xmlns:xlink="http://www.w3.org/1999/xlink" x="0px" y="0px"
	 viewBox="0 0 505.808 505.808" style="enable-background:new 0 0 505.808 505.808;" xml:space="preserve">
<g>
	<g>
		<path d="M253.256,36.611c-34.586-0.014-68.501,9.537-97.997,27.597l30.507,30.507c20.688-11.019,43.76-16.805,67.2-16.853
			c80.548,0.582,145.669,65.798,146.133,146.347c-1.674,22.621-8.614,44.538-20.267,64l30.507,30.507
			c18.183-28.388,28.964-60.88,31.36-94.507C440.741,120.643,356.82,36.653,253.256,36.611z"/>
	</g>
</g>
<g>
	<g>
		<path d="M343.632,343.034c-27.797,37.548-58.088,73.184-90.667,106.667c-67.84-70.4-146.133-169.387-146.133-225.707
			c0.168-31.73,10.734-62.53,30.08-87.68l-29.867-29.867c-27.345,33.177-42.414,74.767-42.667,117.76
			c0.853,110.933,188.587,281.6,188.587,281.6c43.762-40.927,84.01-85.457,120.32-133.12L343.632,343.034z"/>
	</g>
</g>
<g>
	<g>
		
			<rect x="231.57" y="-82.109" transform="matrix(0.7071 -0.7071 0.7071 0.7071 -102.5136 251.9746)" width="42.667" height="663.683"/>
	</g>
</g>
<g>
</g>
<g>
</g>
<g>
</g>
<g>
</g>
<g>
</g>
<g>
</g>
<g>
</g>
<g>
</g>
<g>
</g>
<g>
</g>
<g>
</g>
<g>
</g>
<g>
</g>
<g>
</g>
<g>
</g>
</svg>
