<?xml version="1.0" encoding="iso-8859-1"?>
<!-- Generator: Adobe Illustrator 19.0.0, SVG Export Plug-In . SVG Version: 6.00 Build 0)  -->
<svg version="1.1" id="Layer_1" xmlns="http://www.w3.org/2000/svg" xmlns:xlink="http://www.w3.org/1999/xlink" x="0px" y="0px"
	 viewBox="0 0 469.333 469.333" style="enable-background:new 0 0 469.333 469.333;" xml:space="preserve">
<g>
	<g>
		<path d="M234.667,0C130.984,0,46.933,84.051,46.933,187.733c0,110.933,187.733,281.6,187.733,281.6S422.4,298.667,422.4,187.733
			C422.4,84.051,338.349,0,234.667,0z M234.667,413.44c-67.84-70.187-146.133-169.387-146.133-225.707
			c0.465-80.549,65.585-145.764,146.133-146.347c80.548,0.582,145.669,65.798,146.133,146.347
			C380.8,245.333,302.507,343.04,234.667,413.44z"/>
	</g>
</g>
<g>
	<g>
		<polygon points="256,170.667 256,106.667 213.333,106.667 213.333,170.667 149.333,170.667 149.333,213.333 213.333,213.333 
			213.333,277.333 256,277.333 256,213.333 320,213.333 320,170.667 		"/>
	</g>
</g>
<g>
</g>
<g>
</g>
<g>
</g>
<g>
</g>
<g>
</g>
<g>
</g>
<g>
</g>
<g>
</g>
<g>
</g>
<g>
</g>
<g>
</g>
<g>
</g>
<g>
</g>
<g>
</g>
<g>
</g>
</svg>
