<?xml version="1.0" encoding="iso-8859-1"?>
<!-- Generator: Adobe Illustrator 19.0.0, SVG Export Plug-In . SVG Version: 6.00 Build 0)  -->
<svg version="1.1" id="Layer_1" xmlns="http://www.w3.org/2000/svg" xmlns:xlink="http://www.w3.org/1999/xlink" x="0px" y="0px"
	 viewBox="0 0 426.667 426.667" style="enable-background:new 0 0 426.667 426.667;" xml:space="preserve">
<g>
	<g>
		<path d="M213.333,388.053c-96.259,0.286-174.524-77.516-174.81-173.775c-0.161-54.347,25.038-105.659,68.143-138.758v95.147
			h42.667V21.333H0V64h74.027C70.4,67.627,54.4,71.253,51.2,75.093c-76.348,89.737-65.494,224.375,24.243,300.723
			c38.49,32.747,87.355,50.767,137.891,50.85c7.253,0,14.293,0,21.333-1.067v-39.04
			C227.593,387.493,220.468,387.992,213.333,388.053z"/>
	</g>
</g>
<g>
	<g>
		<path d="M378.667,347.733c31.063-37.9,48.026-85.397,48-134.4C426.667,95.513,331.154,0,213.333,0C206.08,0,199.04,0,192,1.067
			v39.04c95.513-11.966,182.642,55.763,194.607,151.276c7.679,61.295-17.661,122.076-66.607,159.764V256h-42.667v149.333h149.333
			v-42.667h-79.36C352,357.973,374.4,352.853,378.667,347.733z"/>
	</g>
</g>
<g>
</g>
<g>
</g>
<g>
</g>
<g>
</g>
<g>
</g>
<g>
</g>
<g>
</g>
<g>
</g>
<g>
</g>
<g>
</g>
<g>
</g>
<g>
</g>
<g>
</g>
<g>
</g>
<g>
</g>
</svg>
