<?xml version="1.0" encoding="iso-8859-1"?>
<!-- Generator: Adobe Illustrator 19.0.0, SVG Export Plug-In . SVG Version: 6.00 Build 0)  -->
<svg version="1.1" id="Layer_1" xmlns="http://www.w3.org/2000/svg" xmlns:xlink="http://www.w3.org/1999/xlink" x="0px" y="0px"
	 viewBox="0 0 499.413 499.413" style="enable-background:new 0 0 499.413 499.413;" xml:space="preserve">
<g>
	<g>
		<polygon points="368.96,328.747 334.613,348.16 399.04,499.413 441.707,499.413 		"/>
	</g>
</g>
<g>
	<g>
		<polygon points="129.813,328.747 57.707,499.413 100.373,499.413 165.867,344.107 		"/>
	</g>
</g>
<g>
	<g>
		<path d="M374.933,217.813c-9.221-69.081-40.847-133.231-90.027-182.613L249.707,0L214.08,34.987
			C164.9,84.369,133.275,148.519,124.053,217.6c-2.985,23.514-2.985,47.312,0,70.827l21.333,168.32h208.64l20.907-168.107
			C377.919,265.125,377.919,241.328,374.933,217.813z M336.32,283.307L320.533,414.08h-141.44l-16.64-130.773
			c-2.501-19.904-2.501-40.043,0-59.947c9.493-61.448,38.253-118.295,82.133-162.347l5.12-5.12l4.48,5.12
			c43.88,44.051,72.64,100.898,82.133,162.347C338.821,243.264,338.821,263.403,336.32,283.307z"/>
	</g>
</g>
<g>
	<g>
		<circle cx="249.707" cy="243.413" r="42.667"/>
	</g>
</g>
<g>
	<g>
		<rect x="228.373" y="328.747" width="42.667" height="170.667"/>
	</g>
</g>
<g>
</g>
<g>
</g>
<g>
</g>
<g>
</g>
<g>
</g>
<g>
</g>
<g>
</g>
<g>
</g>
<g>
</g>
<g>
</g>
<g>
</g>
<g>
</g>
<g>
</g>
<g>
</g>
<g>
</g>
</svg>
