<?xml version="1.0" encoding="iso-8859-1"?>
<!-- Generator: Adobe Illustrator 19.0.0, SVG Export Plug-In . SVG Version: 6.00 Build 0)  -->
<svg version="1.1" id="Layer_1" xmlns="http://www.w3.org/2000/svg" xmlns:xlink="http://www.w3.org/1999/xlink" x="0px" y="0px"
	 viewBox="0 0 384 384" style="enable-background:new 0 0 384 384;" xml:space="preserve">
<g>
	<g>
		<rect y="170.667" width="74.667" height="42.667"/>
	</g>
</g>
<g>
	<g>
		<rect x="308.48" y="170.667" width="75.52" height="42.667"/>
	</g>
</g>
<g>
	<g>
		<rect x="170.667" y="302.72" width="42.667" height="81.28"/>
	</g>
</g>
<g>
	<g>
		<rect x="170.667" width="42.667" height="73.813"/>
	</g>
</g>
<g>
	<g>
		
			<rect x="45.88" y="281.081" transform="matrix(0.7071 -0.7071 0.7071 0.7071 -189.9663 146.2094)" width="71.254" height="42.667"/>
	</g>
</g>
<g>
	<g>
		<rect x="264.302" y="61.259" transform="matrix(0.7071 -0.7071 0.7071 0.7071 29.9142 237.404)" width="74.454" height="42.667"/>
	</g>
</g>
<g>
	<g>
		
			<rect x="280.226" y="264.107" transform="matrix(0.7071 -0.7071 0.7071 0.7071 -124.8256 301.5243)" width="42.667" height="74.667"/>
	</g>
</g>
<g>
	<g>
		<rect x="60.732" y="45.622" transform="matrix(0.7071 -0.7071 0.7071 0.7071 -33.9432 82.0447)" width="42.667" height="72.747"/>
	</g>
</g>
<g>
	<g>
		<path d="M192,64c-70.692,0-128,57.308-128,128s57.308,128,128,128s128-57.308,128-128S262.692,64,192,64z M192,281.387
			c-49.367,0-89.387-40.02-89.387-89.387c0.117-49.318,40.068-89.269,89.387-89.387c49.367,0,89.387,40.02,89.387,89.387
			S241.367,281.387,192,281.387z"/>
	</g>
</g>
<g>
</g>
<g>
</g>
<g>
</g>
<g>
</g>
<g>
</g>
<g>
</g>
<g>
</g>
<g>
</g>
<g>
</g>
<g>
</g>
<g>
</g>
<g>
</g>
<g>
</g>
<g>
</g>
<g>
</g>
</svg>
