<?xml version="1.0" encoding="iso-8859-1"?>
<!-- Generator: Adobe Illustrator 19.0.0, SVG Export Plug-In . SVG Version: 6.00 Build 0)  -->
<svg version="1.1" id="Layer_1" xmlns="http://www.w3.org/2000/svg" xmlns:xlink="http://www.w3.org/1999/xlink" x="0px" y="0px"
	 viewBox="0 0 427.789 427.789" style="enable-background:new 0 0 427.789 427.789;" xml:space="preserve">
<g>
	<g>
		<path d="M278.455,85.894l-128,72.747c-30.457-35.965-84.302-40.43-120.267-9.973s-40.43,84.302-9.973,120.267
			c30.457,35.965,84.302,40.43,120.267,9.973c3.594-3.044,6.93-6.379,9.973-9.973l128,72.96v-42.667l-110.08-62.933
			c4.509-14.666,4.509-30.348,0-45.013l110.08-62.72V85.894z M86.455,260.614c-25.803,0-46.72-20.917-46.72-46.72
			s20.917-46.72,46.72-46.72s46.72,20.917,46.72,46.72S112.258,260.614,86.455,260.614z"/>
	</g>
</g>
<g>
	<g>
		<path d="M342.455,0.561c-47.128,0-85.333,38.205-85.333,85.333s38.205,85.333,85.333,85.333s85.333-38.205,85.333-85.333
			S389.583,0.561,342.455,0.561z M342.455,132.614c-25.803,0-46.72-20.917-46.72-46.72s20.917-46.72,46.72-46.72
			s46.72,20.917,46.72,46.72S368.258,132.614,342.455,132.614z"/>
	</g>
</g>
<g>
	<g>
		<path d="M342.455,256.561c-47.128,0-85.333,38.205-85.333,85.333s38.205,85.333,85.333,85.333s85.333-38.205,85.333-85.333
			S389.583,256.561,342.455,256.561z M342.455,388.614c-25.803,0-46.72-20.917-46.72-46.72s20.917-46.72,46.72-46.72
			s46.72,20.917,46.72,46.72S368.258,388.614,342.455,388.614z"/>
	</g>
</g>
<g>
</g>
<g>
</g>
<g>
</g>
<g>
</g>
<g>
</g>
<g>
</g>
<g>
</g>
<g>
</g>
<g>
</g>
<g>
</g>
<g>
</g>
<g>
</g>
<g>
</g>
<g>
</g>
<g>
</g>
</svg>
