<?xml version="1.0" encoding="iso-8859-1"?>
<!-- Generator: Adobe Illustrator 19.0.0, SVG Export Plug-In . SVG Version: 6.00 Build 0)  -->
<svg version="1.1" id="Layer_1" xmlns="http://www.w3.org/2000/svg" xmlns:xlink="http://www.w3.org/1999/xlink" x="0px" y="0px"
	 viewBox="0 0 448 448" style="enable-background:new 0 0 448 448;" xml:space="preserve">
<g>
	<g>
		<polygon points="349.44,18.987 321.707,47.147 362.24,87.68 383.787,96.213 277.333,96.213 97.067,309.547 0,309.547 0,352.213 
			116.267,352.213 297.173,138.88 383.573,138.88 362.88,146.56 321.707,187.733 349.653,215.68 448,117.333 		"/>
	</g>
</g>
<g>
	<g>
		<polygon points="349.44,232.32 321.707,260.48 362.24,301.013 383.787,309.547 296.96,309.547 116.267,97.493 0,97.493 0,138.88 
			97.067,138.88 277.333,352.213 383.573,352.213 362.88,359.893 321.707,401.067 349.653,429.013 448,330.667 		"/>
	</g>
</g>
<g>
</g>
<g>
</g>
<g>
</g>
<g>
</g>
<g>
</g>
<g>
</g>
<g>
</g>
<g>
</g>
<g>
</g>
<g>
</g>
<g>
</g>
<g>
</g>
<g>
</g>
<g>
</g>
<g>
</g>
</svg>
