<?xml version="1.0" encoding="iso-8859-1"?>
<!-- Generator: Adobe Illustrator 19.0.0, SVG Export Plug-In . SVG Version: 6.00 Build 0)  -->
<svg version="1.1" id="Layer_1" xmlns="http://www.w3.org/2000/svg" xmlns:xlink="http://www.w3.org/1999/xlink" x="0px" y="0px"
	 viewBox="0 0 512 512" style="enable-background:new 0 0 512 512;" xml:space="preserve">
<g>
	<g>
		<polygon points="115.84,381.44 106.027,403.2 106.027,104.96 114.133,129.067 138.027,152.96 166.613,125.44 83.84,42.667 
			0.853,125.653 29.44,152.96 53.333,129.28 63.36,103.253 63.36,405.12 53.547,382.933 29.44,359.04 0.64,386.133 83.84,469.333 
			166.187,386.987 138.027,359.04 		"/>
	</g>
</g>
<g>
	<g>
		<rect x="298.027" y="106.667" width="128" height="42.667"/>
	</g>
</g>
<g>
	<g>
		<rect x="212.693" y="192" width="298.667" height="42.667"/>
	</g>
</g>
<g>
	<g>
		<polygon points="383.36,0 340.693,0 255.36,192 298.027,192 362.027,48 426.027,192 468.693,192 		"/>
	</g>
</g>
<g>
	<g>
		<rect x="298.027" y="384" width="128" height="42.667"/>
	</g>
</g>
<g>
	<g>
		<rect x="212.693" y="469.333" width="298.667" height="42.667"/>
	</g>
</g>
<g>
	<g>
		<polygon points="383.36,277.333 340.693,277.333 255.36,469.333 298.027,469.333 362.027,325.333 426.027,469.333 
			468.693,469.333 		"/>
	</g>
</g>
<g>
</g>
<g>
</g>
<g>
</g>
<g>
</g>
<g>
</g>
<g>
</g>
<g>
</g>
<g>
</g>
<g>
</g>
<g>
</g>
<g>
</g>
<g>
</g>
<g>
</g>
<g>
</g>
<g>
</g>
</svg>
