<?xml version="1.0" encoding="iso-8859-1"?>
<!-- Generator: Adobe Illustrator 19.0.0, SVG Export Plug-In . SVG Version: 6.00 Build 0)  -->
<svg version="1.1" id="Layer_1" xmlns="http://www.w3.org/2000/svg" xmlns:xlink="http://www.w3.org/1999/xlink" x="0px" y="0px"
	 viewBox="0 0 512.427 512.427" style="enable-background:new 0 0 512.427 512.427;" xml:space="preserve">
<g>
	<g>
		<circle cx="256" cy="289.387" r="42.667"/>
	</g>
</g>
<g>
	<g>
		<path d="M512.427,199.147l-171.093-34.773L256,12.053l-85.333,152.32L0,198.933l118.187,128L97.92,500.16L256,433.6
			l158.507,66.773L394.24,327.147L512.427,199.147z M270.08,399.893l-14.08-5.76l-14.08,5.973L140.8,442.773l13.013-110.72
			l1.92-16.427l-11.307-12.16L69.973,221.76l107.733-21.333l16.213-3.2l8.32-14.507L256,86.507l53.973,96.213l8.107,14.507
			l16.213,3.2l107.733,21.333l-74.453,80.853l-11.307,12.16l1.92,16.427L371.2,442.56L270.08,399.893z"/>
	</g>
</g>
<g>
</g>
<g>
</g>
<g>
</g>
<g>
</g>
<g>
</g>
<g>
</g>
<g>
</g>
<g>
</g>
<g>
</g>
<g>
</g>
<g>
</g>
<g>
</g>
<g>
</g>
<g>
</g>
<g>
</g>
</svg>
