<?xml version="1.0" encoding="iso-8859-1"?>
<!-- Generator: Adobe Illustrator 19.0.0, SVG Export Plug-In . SVG Version: 6.00 Build 0)  -->
<svg version="1.1" id="Layer_1" xmlns="http://www.w3.org/2000/svg" xmlns:xlink="http://www.w3.org/1999/xlink" x="0px" y="0px"
	 viewBox="0 0 512 512" style="enable-background:new 0 0 512 512;" xml:space="preserve">
<g>
	<g>
		<rect y="234.667" width="85.333" height="42.667"/>
	</g>
</g>
<g>
	<g>
		<rect x="426.667" y="234.667" width="85.333" height="42.667"/>
	</g>
</g>
<g>
	<g>
		<rect x="234.667" y="426.667" width="42.667" height="85.333"/>
	</g>
</g>
<g>
	<g>
		<rect x="234.667" width="42.667" height="85.333"/>
	</g>
</g>
<g>
	<g>
		
			<rect x="62.52" y="385.462" transform="matrix(0.7071 -0.7071 0.7071 0.7071 -256.8394 193.5262)" width="85.334" height="42.667"/>
	</g>
</g>
<g>
	<g>
		
			<rect x="364.173" y="83.871" transform="matrix(0.7071 -0.7071 0.7071 0.7071 44.7698 318.4931)" width="85.334" height="42.667"/>
	</g>
</g>
<g>
	<g>
		
			<rect x="385.472" y="364.058" transform="matrix(0.707 -0.7072 0.7072 0.707 -168.4475 406.8834)" width="42.667" height="85.333"/>
	</g>
</g>
<g>
	<g>
		<rect x="83.884" y="62.48" transform="matrix(0.707 -0.7072 0.7072 0.707 -43.5328 105.223)" width="42.667" height="85.333"/>
	</g>
</g>
<g>
	<g>
		<path d="M256,128c-70.692,0-128,57.308-128,128s57.308,128,128,128s128-57.308,128-128S326.692,128,256,128z M256,345.387
			c-49.367,0-89.387-40.02-89.387-89.387c0.117-49.318,40.068-89.269,89.387-89.387c49.367,0,89.387,40.02,89.387,89.387
			S305.367,345.387,256,345.387z"/>
	</g>
</g>
<g>
</g>
<g>
</g>
<g>
</g>
<g>
</g>
<g>
</g>
<g>
</g>
<g>
</g>
<g>
</g>
<g>
</g>
<g>
</g>
<g>
</g>
<g>
</g>
<g>
</g>
<g>
</g>
<g>
</g>
</svg>
