<?xml version="1.0" encoding="iso-8859-1"?>
<!-- Generator: Adobe Illustrator 19.0.0, SVG Export Plug-In . SVG Version: 6.00 Build 0)  -->
<svg version="1.1" id="Layer_1" xmlns="http://www.w3.org/2000/svg" xmlns:xlink="http://www.w3.org/1999/xlink" x="0px" y="0px"
	 viewBox="0 0 513.141 513.141" style="enable-background:new 0 0 513.141 513.141;" xml:space="preserve">
<g>
	<g>
		<path d="M375.818,385.146H51.765l14.507-79.36c6.706-37.664,37.658-66.262,75.733-69.973c27.093-2.133,39.467-2.133,50.56-2.56
			c-18.275-20.022-31.576-44.067-38.827-70.187L107.232,117.2c0,4.053,0,7.893,0,11.947c0.572,23.229,5.417,46.153,14.293,67.627
			c-49.864,11.336-88.197,51.262-97.493,101.547L0.565,427.813h417.92L375.818,385.146z"/>
	</g>
</g>
<g>
	<g>
		
			<rect x="241.51" y="-68.433" transform="matrix(0.7071 -0.7071 0.7071 0.7071 -109.2729 263.0086)" width="42.667" height="663.683"/>
	</g>
</g>
<g>
	<g>
		<path d="M445.578,297.04c-9.264-50.225-47.498-90.137-97.28-101.547c8.944-21.032,14.003-43.511,14.933-66.347
			c0.633-70.69-56.159-128.508-126.848-129.141c-43.31-0.388-83.879,21.153-107.818,57.248l31.573,30.72
			c22.382-41.474,74.148-56.951,115.622-34.569c27.806,15.006,45.044,44.147,44.804,75.743
			c-1.198,32.177-12.051,63.248-31.147,89.173l17.28,17.28h21.333c37.88,3.639,68.773,31.921,75.733,69.333l5.76,32l52.907,52.907
			L445.578,297.04z"/>
	</g>
</g>
<g>
</g>
<g>
</g>
<g>
</g>
<g>
</g>
<g>
</g>
<g>
</g>
<g>
</g>
<g>
</g>
<g>
</g>
<g>
</g>
<g>
</g>
<g>
</g>
<g>
</g>
<g>
</g>
<g>
</g>
</svg>
