<?xml version="1.0" encoding="iso-8859-1"?>
<!-- Generator: Adobe Illustrator 19.0.0, SVG Export Plug-In . SVG Version: 6.00 Build 0)  -->
<svg version="1.1" id="Layer_1" xmlns="http://www.w3.org/2000/svg" xmlns:xlink="http://www.w3.org/1999/xlink" x="0px" y="0px"
	 viewBox="0 0 512 512" style="enable-background:new 0 0 512 512;" xml:space="preserve">
<g>
	<g>
		<path d="M192,74.667c-58.91,0-106.667,47.756-106.667,106.667c0,82.347,47.787,149.333,106.667,149.333
			c59.093,0,106.667-66.987,106.667-149.333C298.667,122.423,250.91,74.667,192,74.667z M192,288c-34.133,0-64-49.92-64-106.667
			c0-35.346,28.654-64,64-64c35.346,0,64,28.654,64,64C256,237.227,226.133,288,192,288z"/>
	</g>
</g>
<g>
	<g>
		<path d="M362.667,338.133c-15.755-52.319-62.378-89.327-116.907-92.8L243.2,288c36.626,2.175,68.071,26.821,78.933,61.867
			l10.667,44.8H56.533l12.8-44.8c9.699-34.339,39.739-59.017,75.307-61.867l-3.413-42.667c-53.312,4.317-98.319,41.326-112.853,92.8
			L0,437.333h389.333L362.667,338.133z"/>
	</g>
</g>
<g>
	<g>
		<path d="M485.76,338.133c-11.547-38.583-40.415-69.581-78.08-83.84c9.259-23.206,13.967-47.976,13.867-72.96
			c0-58.91-47.756-106.667-106.667-106.667c-10.735,0.156-21.383,1.955-31.573,5.333c12.033,10.208,21.65,22.959,28.16,37.333h3.627
			c35.346,0,64,28.654,64,64c0.35,29.592-8.605,58.546-25.6,82.773c10.445,10.723,18.897,23.22,24.96,36.907
			c2.773-2.773,5.12-5.973,7.68-8.96c28.013,8.214,50.044,29.923,58.667,57.813l10.667,44.8h-45.44l11.307,42.667H512
			L485.76,338.133z"/>
	</g>
</g>
<g>
</g>
<g>
</g>
<g>
</g>
<g>
</g>
<g>
</g>
<g>
</g>
<g>
</g>
<g>
</g>
<g>
</g>
<g>
</g>
<g>
</g>
<g>
</g>
<g>
</g>
<g>
</g>
<g>
</g>
</svg>
