<?xml version="1.0" encoding="iso-8859-1"?>
<!-- Generator: Adobe Illustrator 19.0.0, SVG Export Plug-In . SVG Version: 6.00 Build 0)  -->
<svg version="1.1" id="Layer_1" xmlns="http://www.w3.org/2000/svg" xmlns:xlink="http://www.w3.org/1999/xlink" x="0px" y="0px"
	 viewBox="0 0 471.467 471.467" style="enable-background:new 0 0 471.467 471.467;" xml:space="preserve">
<g>
	<g>
		<path d="M363.733,426.667H470.4l-23.467-129.493c-9.264-50.225-47.498-90.137-97.28-101.547
			c8.803-21.487,13.576-44.411,14.08-67.627c0-70.692-57.308-128-128-128s-128,57.308-128,128
			c0.572,23.229,5.417,46.153,14.293,67.627c-49.864,11.336-88.197,51.262-97.493,101.547L1.067,426.667h106.667V384H52.267
			l14.507-79.36c6.706-37.664,37.658-66.262,75.733-69.973c23.253,36.053,56.533,64,93.227,64s69.973-27.307,93.227-64
			c37.88,3.639,68.772,31.921,75.733,69.333l14.507,80h-55.467V426.667z M235.733,257.493C201.6,257.493,150.4,189.867,150.4,128
			c1.017-46.701,38.633-84.317,85.333-85.333c46.701,1.017,84.317,38.633,85.333,85.333
			C321.067,189.867,269.867,257.493,235.733,257.493z"/>
	</g>
</g>
<g>
	<g>
		<polygon points="317.867,307.84 214.613,413.013 161.493,359.893 133.333,388.267 216.533,471.467 350.72,341.547 		"/>
	</g>
</g>
<g>
</g>
<g>
</g>
<g>
</g>
<g>
</g>
<g>
</g>
<g>
</g>
<g>
</g>
<g>
</g>
<g>
</g>
<g>
</g>
<g>
</g>
<g>
</g>
<g>
</g>
<g>
</g>
<g>
</g>
</svg>
