<?xml version="1.0" encoding="iso-8859-1"?>
<!-- Generator: Adobe Illustrator 19.0.0, SVG Export Plug-In . SVG Version: 6.00 Build 0)  -->
<svg version="1.1" id="Layer_1" xmlns="http://www.w3.org/2000/svg" xmlns:xlink="http://www.w3.org/1999/xlink" x="0px" y="0px"
	 viewBox="0 0 469.333 469.333" style="enable-background:new 0 0 469.333 469.333;" xml:space="preserve">
<g>
	<g>
		<rect x="192" y="341.333" width="85.333" height="42.667"/>
	</g>
</g>
<g>
	<g>
		<path d="M445.867,318.507c-9.264-50.225-47.498-90.137-97.28-101.547c8.803-21.487,13.576-44.411,14.08-67.627
			c0-70.692-57.308-128-128-128s-128,57.308-128,128c0.572,23.229,5.417,46.153,14.293,67.627
			c-49.864,11.336-88.197,51.262-97.493,101.547L0,448h469.333L445.867,318.507z M234.667,64c47.117,0.45,85.365,38.226,86.4,85.333
			c0,61.867-51.2,129.493-86.4,129.493s-85.333-67.627-85.333-129.493C150.35,102.633,187.966,65.017,234.667,64z M51.2,405.333
			l14.507-79.36c6.706-37.664,37.658-66.262,75.733-69.973c23.253,36.053,56.533,64,93.227,64s69.973-27.307,93.227-64
			c37.88,3.639,68.772,31.921,75.733,69.333l14.507,80H51.2z"/>
	</g>
</g>
<g>
</g>
<g>
</g>
<g>
</g>
<g>
</g>
<g>
</g>
<g>
</g>
<g>
</g>
<g>
</g>
<g>
</g>
<g>
</g>
<g>
</g>
<g>
</g>
<g>
</g>
<g>
</g>
<g>
</g>
</svg>
