<?xml version="1.0" encoding="iso-8859-1"?>
<!-- Generator: Adobe Illustrator 19.0.0, SVG Export Plug-In . SVG Version: 6.00 Build 0)  -->
<svg version="1.1" id="Layer_1" xmlns="http://www.w3.org/2000/svg" xmlns:xlink="http://www.w3.org/1999/xlink" x="0px" y="0px"
	 viewBox="0 0 372.693 372.693" style="enable-background:new 0 0 372.693 372.693;" xml:space="preserve">
<g>
	<g>
		<circle cx="187.093" cy="293.278" r="42.667"/>
	</g>
</g>
<g>
	<g>
		<path d="M122.695,159.92c-11.385,6.145-21.815,13.915-30.962,23.065h0.213c-9.143,9.136-16.905,19.557-23.04,30.933l28.587,28.587
			c19.098-48.955,74.266-73.158,123.221-54.059c24.785,9.669,44.39,29.274,54.059,54.059l28.587-28.587
			C268.382,149.118,187.496,124.942,122.695,159.92z"/>
	</g>
</g>
<g>
	<g>
		<path d="M55.957,77.922c-11.255,7.885-21.773,16.773-31.424,26.556C15.545,113.586,7.338,123.434,0,133.918l27.307,27.093
			C85.442,73.176,203.775,49.099,291.61,107.235c21.354,14.133,39.643,32.423,53.776,53.777l27.307-27.307
			C300.633,30.836,158.825,5.861,55.957,77.922z"/>
	</g>
</g>
<g>
</g>
<g>
</g>
<g>
</g>
<g>
</g>
<g>
</g>
<g>
</g>
<g>
</g>
<g>
</g>
<g>
</g>
<g>
</g>
<g>
</g>
<g>
</g>
<g>
</g>
<g>
</g>
<g>
</g>
</svg>
