<?xml version="1.0" encoding="iso-8859-1"?>
<!-- Generator: Adobe Illustrator 19.0.0, SVG Export Plug-In . SVG Version: 6.00 Build 0)  -->
<svg version="1.1" id="Layer_1" xmlns="http://www.w3.org/2000/svg" xmlns:xlink="http://www.w3.org/1999/xlink" x="0px" y="0px"
	 viewBox="0 0 512 512" style="enable-background:new 0 0 512 512;" xml:space="preserve">
<g>
	<g>
		<polygon points="170.88,0 170.88,106.667 213.333,106.667 213.333,42.667 298.667,42.667 298.667,106.667 341.333,106.667 
			341.333,0 		"/>
	</g>
</g>
<g>
	<g>
		<polygon points="298.667,405.333 298.667,469.333 213.333,469.333 213.333,405.333 170.88,405.333 170.88,512 341.333,512 
			341.333,405.333 		"/>
	</g>
</g>
<g>
	<g>
		<path d="M256,85.333c-94.257,0-170.667,76.41-170.667,170.667S161.743,426.667,256,426.667S426.667,350.257,426.667,256
			S350.257,85.333,256,85.333z M256,387.413c-72.578,0-131.413-58.836-131.413-131.413S183.422,124.587,256,124.587
			S387.413,183.422,387.413,256S328.578,387.413,256,387.413z"/>
	</g>
</g>
<g>
	<g>
		<polygon points="277.333,234.667 277.333,192 234.667,192 234.667,277.333 320,277.333 320,234.667 		"/>
	</g>
</g>
<g>
</g>
<g>
</g>
<g>
</g>
<g>
</g>
<g>
</g>
<g>
</g>
<g>
</g>
<g>
</g>
<g>
</g>
<g>
</g>
<g>
</g>
<g>
</g>
<g>
</g>
<g>
</g>
<g>
</g>
</svg>
